<?xml version="1.0" encoding="utf-8"?>
<svg version="1.1" xmlns:xlink="http://www.w3.org/1999/xlink" width="50px" height="48px" xmlns="http://www.w3.org/2000/svg">
  <g transform="matrix(1 0 0 1 -426 -385 )">
    <path d="M 49.498997995991985 42.732919254658384  C 49.83299933199733 43.064182194616976  50 43.445134575569355  50 43.87577639751552  C 50 44.306418219461705  49.83299933199733 44.68737060041408  49.498997995991985 45.01863354037267  L 46.9939879759519 47.50310559006211  C 46.65998663994657 47.83436853002071  46.27588510354042 48  45.84168336673346 48  C 45.40748162992652 48  45.02338009352037 47.83436853002071  44.68937875751503 47.50310559006211  L 25 27.97515527950311  L 5.31062124248497 47.50310559006211  C 4.976619906479626 47.83436853002071  4.592518370073481 48  4.158316633266533 48  C 3.7241148964595863 48  3.340013360053441 47.83436853002071  3.006012024048096 47.50310559006211  L 0.501002004008016 45.01863354037267  C 0.1670006680026725 44.68737060041408  0 44.306418219461705  0 43.87577639751552  C 0 43.445134575569355  0.1670006680026725 43.064182194616976  0.501002004008016 42.732919254658384  L 23.847695390781563 19.577639751552795  C 24.18169672678691 19.246376811594196  24.565798263193056 19.080745341614907  25 19.080745341614907  C 25.434201736806948 19.080745341614907  25.818303273213093 19.246376811594196  26.152304609218437 19.577639751552795  L 49.498997995991985 42.732919254658384  Z M 49.498997995991985 23.652173913043477  C 49.83299933199733 23.98343685300207  50 24.36438923395445  50 24.795031055900623  C 50 25.22567287784679  49.83299933199733 25.60662525879917  49.498997995991985 25.937888198757765  L 46.9939879759519 28.4223602484472  C 46.65998663994657 28.753623188405797  46.27588510354042 28.919254658385093  45.84168336673346 28.919254658385093  C 45.40748162992652 28.919254658385093  45.02338009352037 28.753623188405797  44.68937875751503 28.4223602484472  L 25 8.894409937888199  L 5.31062124248497 28.4223602484472  C 4.976619906479626 28.753623188405797  4.592518370073481 28.919254658385093  4.158316633266533 28.919254658385093  C 3.7241148964595863 28.919254658385093  3.340013360053441 28.753623188405797  3.006012024048096 28.4223602484472  L 0.501002004008016 25.937888198757765  C 0.1670006680026725 25.60662525879917  0 25.22567287784679  0 24.795031055900623  C 0 24.36438923395445  0.1670006680026725 23.98343685300207  0.501002004008016 23.652173913043477  L 23.847695390781563 0.49689440993788736  C 24.18169672678691 0.16563146997929223  24.565798263193056 0  25 0  C 25.434201736806948 0  25.818303273213093 0.16563146997929223  26.152304609218437 0.49689440993788736  L 49.498997995991985 23.652173913043477  Z " fill-rule="nonzero" fill="#ffffff" stroke="none" transform="matrix(1 0 0 1 426 385 )" />
  </g>
</svg>