<?xml version="1.0" encoding="UTF-8"?>
<svg id="_图层_1" data-name="图层 1" xmlns="http://www.w3.org/2000/svg" viewBox="0 0 158.77 104.83">
  <path class="cls-1" d="M127.12,46.77c.73-.85,1.46-1.77,2.13-2.68H29.53c.67,.91,1.4,1.83,2.15,2.68H127.12Z"/>
  <path class="cls-1" d="M77.07,4.46h.71c-.63,1.05-1.4,4.87,.06,8.08h0c-.17,0-.32,.14-.32,.32h0c0,.17,.14,.32,.32,.32h.47s2.26,0,2.26,0h0s.35,0,.35,0c.17,0,.32-.14,.32-.32h0c0-.17-.14-.32-.32-.32h0c1.46-3.21,.68-7.03,.06-8.08h.71c.22,0,.41-.18,.41-.41s-.18-.41-.41-.41h-.05v-.09c0-.6-.42-1.1-.97-1.23,.18-.16,.29-.4,.29-.65v-.29c.15-.02,.27-.15,.27-.31,0-.17-.14-.32-.32-.32h-.32v-.06c0-.36-.29-.66-.64-.68h-1.16c-.36,.02-.64,.32-.64,.68v.06h-.32c-.17,0-.32,.14-.32,.32,0,.16,.12,.29,.27,.31v.16s0,.14,0,.14c0,.26,.11,.49,.29,.65-.56,.14-.97,.64-.97,1.23v.09h-.05c-.22,0-.41,.18-.41,.41s.18,.41,.41,.41Z"/>
  <g>
    <rect class="cls-1" x="76.03" y="36.36" width="6.74" height="2.4"/>
    <g>
      <g>
        <polygon class="cls-1" points="56.67 37.01 56.67 39.65 51.63 42.1 51.63 39.44 56.67 37.01"/>
        <polygon class="cls-1" points="102.11 37.01 102.11 39.65 107.14 42.1 107.14 39.44 102.11 37.01"/>
      </g>
      <g>
        <rect class="cls-1" x="84.65" y="36.36" width="6.74" height="2.4"/>
        <rect class="cls-1" x="93.29" y="36.36" width="6.74" height="2.4"/>
        <rect class="cls-1" x="58.75" y="36.36" width="6.74" height="2.4"/>
        <rect class="cls-1" x="67.38" y="36.36" width="6.74" height="2.4"/>
      </g>
    </g>
  </g>
  <g>
    <polygon class="cls-1" points="7.8 104.83 150.98 104.83 154.41 101.39 4.37 101.39 7.8 104.83"/>
    <polygon class="cls-1" points="3.43 100.47 155.35 100.47 158.76 97.05 .01 97.05 3.43 100.47"/>
    <polygon class="cls-1" points="45.14 91.82 113.64 91.82 113.1 90.21 45.67 90.21 45.14 91.82"/>
    <polygon class="cls-1" points="44.13 94.84 114.64 94.84 114.1 93.23 44.67 93.23 44.13 94.84"/>
    <polygon class="cls-1" points="46.69 87.19 46.14 88.8 112.63 88.8 112.08 87.19 46.69 87.19"/>
  </g>
  <g>
    <path class="cls-1" d="M44.99,50.35v-1.54h-3.66v2.57c1.36-.18,2.59-.55,3.66-1.03Z"/>
    <path class="cls-1" d="M35.98,50.66c.84,.54,1.83,.77,2.94,.83v-2.68h-3.64v1.38c.23,.18,.47,.33,.7,.48Z"/>
    <path class="cls-1" d="M122.88,50.66c.21-.12,.41-.28,.62-.43v-1.43h-3.64v2.68c1.14-.04,2.16-.28,3.03-.83Z"/>
    <path class="cls-1" d="M117.45,51.36v-2.56h-3.64v1.51c1.06,.48,2.28,.87,3.64,1.05Z"/>
  </g>
  <path class="cls-1" d="M7.1,60.49H151.67c4.42,0,7.1-8.52,7.1-8.52,0,0-6.97,4.19-12.3,.83-5.34-3.37-11.15-13.69-11.15-13.69,0,0-5.81,10.32-11.15,13.69-5.34,3.37-12.3-.82-12.3-.82,0,0,.95,3.34,2.82,5.84h-3.1c-.41-.83-.94-2.19-1.27-3.08-.77-2.08-1.32-4.21-1.7-5.93h-.84v9.01h-2.34v-9.01h-3.62v9.01h-2.45v-9.01h-3.62v9.01h-2.45v-9.01h-3.62v9.01h-2.45v-9.01h-3.62v9.01h-2.43v-9.01h-3.65v9.01h-2.43v-9.01h-3.62v9.01h-2.45v-9.01h-3.62v9.01h-2.45v-9.01h-3.62v9.01h-2.45v-9.01h-3.62v9.01h-2.33v-9.01h-.84c-.39,1.72-.93,3.85-1.7,5.93-.33,.89-.75,2.26-1.17,3.08h-3.09c1.87-2.5,2.72-5.84,2.72-5.84,0,0-6.97,4.19-12.3,.82-5.34-3.37-11.15-13.69-11.15-13.69,0,0-5.82,10.32-11.15,13.69-5.34,3.37-12.3-.83-12.3-.83,0,0,2.69,8.52,7.1,8.52Z"/>
  <path class="cls-1" d="M47.63,38.04l9.37-4.55h44.79l9.37,4.55c7.19-1.13,9.78-9.4,9.78-9.4-4.97,5.23-16.09,3.5-14.22-1.69,1.64-4.25,.84-7.03,.84-7.03-2.18,3.96-5.94,5.21-8.4,5.28-2.88,.08-5.09-1.67-5.09-1.67v-4.93l1.29-.91v-4.56h-4.02v2.14h-9.48v-1.06h-5.03v1.06h-9.45v-2.14h-3.95v4.56l1.29,.91v4.93s-2.21,1.76-5.09,1.67c-2.46-.07-6.22-1.32-8.4-5.28,0,0-.8,2.77,.84,7.03,1.88,5.19-9.25,6.92-14.22,1.69,0,0,2.59,8.28,9.78,9.4Z"/>
  <g>
    <path class="cls-1" d="M7.24,63.35v31.5H39.75v-31.5H7.24Zm11.32,11.45h-5.09v-5.09h5.09v5.09Zm7.49,0h-5.09v-5.09h5.09v5.09Zm7.51,0h-5.09v-5.09h5.09v5.09Z"/>
    <path class="cls-1" d="M119.02,63.35v31.5h32.51v-31.5h-32.51Zm11.3,11.45h-5.09v-5.09h5.09v5.09Zm7.51,0h-5.09v-5.09h5.09v5.09Zm7.51,0h-5.09v-5.09h5.09v5.09Z"/>
  </g>
  <path class="cls-1" d="M81.77,63.26v-1.65l-4.79,.02v1.63H44.05l-.04,22.23H114.72l.04-22.23h-32.99Zm-13.46,2.68h8.67v1.93h-8.67v-1.93Zm-19.72,17.42h-1.9v-13.75h1.9v13.75Zm14.23-.04h-12.46v-12l2.57-1.68h7.51l2.39,1.68v12Zm0-15.45h-12.46v-1.93h12.46v1.93Zm3.6,15.49h-1.9v-13.73h1.9v13.73Zm0-15.49h-1.9v-1.93h1.9v1.93Zm18.38,15.49h-.84v-8.54h-8.94v8.54h-.84v-9.17h10.63v9.17Zm5.94,0h-5.07v-10.15h-12.45v10.15h-5.04v-12.06l2.55-1.67h17.21l2.8,1.67v12.06Zm0-15.49l-8.96-.02v-1.93l8.96,.02v1.93Zm3.64,15.45h-1.95v-13.69h1.95v13.69Zm0-15.49h-1.95v-1.95h1.95v1.95Zm14.15,15.49h-12.46v-12.12l2.45-1.57h7.45l2.57,1.65v12.04Zm0-15.45h-12.46v-1.93h12.46v1.93Zm3.62,15.49h-1.93v-13.73h1.93v13.73Z"/>
</svg>