<svg xmlns="http://www.w3.org/2000/svg" width="6725" height="711" viewBox="0 0 6725 711">
  <defs>
    <style>
      .cls-1 {
        fill: #ffffff;
        stroke: #ffffff;
        stroke-width: 8px;
        fill-rule: evenodd;
      }
    </style>
  </defs>
  <path id="形状_1" data-name="形状 1" class="cls-1" d="M4296,27c20.26-.3,41.03,17.07,48,31,2.1,4.2,8.05,16.738,4,23-1.73,5.578-5.46,6.469-9,10a206.9,206.9,0,0,0-53,6l-13,1c-7.83,2.2-13.81,5.662-24,6-1.61-2.3-2.14-1.51-3-5-0.8-1.18-.77-1.681-1-4,14.47-8.823,28.71-17.1,42-27,4.82-3.587,7.7-9.831,12-14-0.07-8.015-6.07-23.764-6-24C4293.17,29.46,4295.48,27.892,4296,27Zm1106,2c25.33,2.328,50.68,13.231,61,31,10.12,17.421-11.85,42.872-21,49-12.01,8.047-25.25-3.8-39-1-16.58,3.378-38.78,9.717-59,12-0.96-1.766-1.26-1.68-2-4,4.37-2.723,6.32-6.917,10-10,14.17-11.876,35.78-23.849,42-43,3.26-10.035-4.59-16.892-5-26a68.673,68.673,0,0,0,8-7C5399.53,29.926,5400.72,29.88,5402,29ZM3079,42c8.55-.159,13.87,2.15,20,4,10.28,3.1,17.98,1.128,23,9,5.38,8.442,2.2,23.489,0,32-1.75,6.744-.65,12.3-3,18-3.41,8.257-9.54,14.843-14,22-6,9.621-10.38,20.79-16,30-4.53,7.426-10.3,14.746-11,25,1.56,1.4,2.87,4.284,5,5,5.73,1.925,12.57-2.707,16-4,7.78-2.935,16.06-3.627,24-7,4.07-1.728,8.14-5.753,13-7,10-2.565,21.08,5.878,27,9,8.3,4.377,15.36,7.939,16,20-2.64,2.592-4,6.795-7,9-10.69,7.85-28.27,15.38-42,19-10.24,2.7-32.89,4.978-35,14,8.67,5.7,14.9,14.651,22,22,0.12,16.788-9.97,20.343-11,35,2.76,2.033,4.18,6.191,7,8,9.92,6.372,26.9,5.125,32,16,1.21,2.111.48,2.232,0,5-9.64,5.391-34.23,1.163-47,4-1.83,2.863-5.23,4.382-7,7-4.29,6.331-7.65,17.887-10,25-2.69,8.117-1.44,16.436-4,25-7.5,25.055-12.57,56.516-29,73-7.82,7.846-21.13,13.536-33,17l-14,1c-6.9,1.662-10.83,2.657-18,1-1.71-3.455-3.32-5.2-4-10q2.505-3.5,5-7c5.57-4.354,12.45-6.809,18-11,17.01-12.849,41.05-58.663,42-88-3.11-2.094-3.42-4.093-8-5-5.33,5.064-13,7.625-19,12q-8.505,9-17,18c-12.93,8.921-25.75,15.757-38,25-4.02,3.034-5.96,7.888-9,12-8.16,11.025-22.88,25.534-41,26-9.1-9.029-25.09-34.7-26-51,2.43-2.968,3.3-7.318,6-10,3.55-3.531,8.89-5,13-8,4.47-3.262,14.64-13.544,18-18,5.74-7.6,11.16-16.46,18-23,3.7-3.539,8.9-5.906,12-10,1.85-2.442,2.64-5.188,5-7,1.74-1.334,3.71-1.319,5-3,9.25-12.067,17.75-20.88,30-30q5.505-6,11-12c12.43-8.6,21.23-19.251,33-28,5.32-3.959,11.03-5.554,12-14-7.27-8.143-15.64-17.214-19-29-3.38-11.834,6.83-31.5,10-39,4.04-9.542,5.51-18.016,10-27,10.51-21.025,23.03-42.132,29-68,2.28-9.9-5.84-16.558-7-25C3074.31,46.854,3076.85,44.309,3079,42Zm3489,7c6.42,0.944,10.43,5.226,15,8q7.995,3,16,6c7.17,4.936,17.08,23.673,17,36a80.294,80.294,0,0,0-12,10c-2-.663-6.12-0.046-9-1-5.18-1.714-10.96-6.361-17-8-8.55-2.318-16.73,4.977-20,4-0.67-1-1.33-2-2-3-3.76-2.144-12-2.407-16-2-9.67.983-20.37,4.69-31,5-1.61-2.3-2.14-1.51-3-5,2.64-1.272,5.64-3.967,8-5,8.55-3.738,17.87-2.329,26-6,2.94-1.327,13.42-11.271,16-14,5.02-5.3,3.76-15.819,8-22C6565.17,50.849,6566.84,50.161,6568,49ZM105,440c-0.214,15.054-7.129,25.186-11,37-3.609,11.013-2.154,20.549-5,33-1.568,6.859-5.457,18.621-2,24,1.978,6.233,7.444,9.158,16,9,9.222-12.407,25.527-22.1,33-36,2.783-5.175,2.908-10.264,6-15,5.4-8.262,11.881-17.063,16-27,2.272-5.481,1.578-10.594,4-16,0.98-2.186,3.99-3.825,5-6,2.757-5.938,2.365-12.73,5-19,3.13-7.447,8.812-14.412,12-22,2.788-6.636,1.846-14.081,5-21,5.968-13.092,17.5-36.273,20-51a18.324,18.324,0,0,0-6-1c-7.539,7.6-18.183,11.622-27,18-10.45,7.559-16.711,21.34-27,29-3.444,2.564-7.67,3.253-11,6-7.947,6.556.825,19.687-11,24-2.81,2.242-7.715,2.136-13,2-8.911-11.273-19.5-17.458-15-37,2.689-1.64,5.931-5,9-6h10c4.809-1.577,8.775-6.784,13-9,2.587-1.357,4.693-.567,7-2,3.939-2.447,5.57-7.29,9-10,4.813-3.8,10.89-5.333,16-9,4.706-3.376,8.83-8.951,14-12l9-2c6.677-3.154,10.994-11.041,17-15,7.595-5.006,16.787-6.757,22-14,3.2-4.45,3.036-9.917,6-15,2.778-4.765,9.036-6.8,12-11,5.383-7.627,5.109-24.727,5-37h-2c-2.151,2.217-5.1,3.522-7,6-3.141,4.529-3.837,14.162-5,20-7.409,4.713-13.061,10.644-25,11-4.755-7.435-11.226-16.713-14-26-1.706-5.709-.142-9,0-14,0.454-16.03,1.333-27.664-2-39-1.763-5.994-10.983-29.732-10-32,1.268-4.121,2.619-4.9,8-5l12,9c6.681,8.7,12.721,17.059,20,25,2.178-.886,3.607-1.324,5-3,5.432-7.263,2.77-29.692,5-39q0.5-7,1-14c-1.647-5.582-9.607-10.781-10-17-0.594-9.388,7.208-15.864,10-22,3.234-7.109,2.019-14.08,2-25,2.751-2.19,4.552-6.694,8-8,6.11-2.314,9.856,1.5,16,0,4.841-1.18,15.731-7.632,23-3,19.854,7.055,15.3,37.5,19,57,7.36,3.879,7.711-.069,16,2,6.469,1.615,20.488,7.831,24,13,6.033,7.922-2.913,21.228-6,27-5.245,9.807-13.468,15.549-22,22-4.685,3.543-6.964,9.769-11,14-5.361,5.62-12.344,7.446-14,17a11.725,11.725,0,0,1,2,5c4.582,2.88,8.545,8.038,14,10l15,2c1.82,0.742,4.837,3.585,7,4,8.808,1.689,16.1-3.126,20,8,1.5,1.624,1.552,2.023,2,5-4.787,4.553-9.814,9.906-16,13l-15,3c-12.127,4.1-28.211,12.694-37,21-4.99,4.716-13.527,22.4-1,25,4.9-5.125,12.383-3.571,19-2,5.391,1.28,12.925-1.963,21,1,6.536,2.4,9.558,8.484,14,13-0.1,15.335-7,15.875-16,22-5.482,3.732-11.6,11.964-16,17-8.009,9.173-19.429,28.985-24,41q-1,5-2,10c-2.143,5.056-8.7,10.691-9,17-0.162,3.47,2.243,10.915,1,16-3.048,12.47-5.759,24.372-3,39a18.324,18.324,0,0,0,6,1c4.2-7,11.212-24.452,8-37-1.028-4.017-1.967-7.859-1-13l3-1c9.131-6.563,24.839,2.435,35,3,2.039-1.912,4.637-2.283,7-4l12-13c4.142-3.02,8.728-4.025,13-7l11-14c5.187-3.652,12.835-3.509,18-7,4.939-3.338,9.012-9.659,14-13,11.635-7.792,44.242-20.107,50-31,3.7-7,1.132-16.566,4-25,1.281-3.767,4.314-9.1,5-14q-1-6.5-2-13c1.683-9.906,3.856-22.514,6-32q-1-11.5-2-23c1.137-4.994,3.793-9.57,5-14,2.135-7.836-.318-13.833,0-23,0.127-3.647,1.367-6.442,2-9,2.693-10.887-1.258-22.411-2-29-0.4-3.564,2.675-12.608,2-16-3.841-19.3-18.861-30.979-18-49a24.956,24.956,0,0,0,5-4c5.037,1.165,10.758,3.707,16,5,6.563,1.618,9.457-1.6,15,2,10.3,6.69,16.061,18.649,19,33,0.962,4.7-2.315,7.832-1,14,1.68,7.879,5.288,20.315,2,30-1.326,3.907-5.506,9.062-7,13q-1,7-2,14c-1.038,2.907-4.047,8.172-5,11-3.024,8.977-.311,17.338-3,27-0.935,3.359-3.977,8.8-5,12-2.957,9.234-.725,18.018-3,27-4.021,15.875-10.691,35.669-7,53,2.418,1.3,2.833,1.8,7,2,7.941-7.243,19.319-7.55,28-16-0.328-10.179-6.417-13.032-8-22,2.379-2.243,1.752-3.174,6-4,10.175,7.961,26.044,14.652,41,17,4.642,0.729,14.839-.522,22,1,5.945,8.575,6.016,6.337,3,17-3.447,1.613-7.382,4.873-11,6-8.633,2.688-15.7-2.382-24,0-13.469,3.865-27.612,8.884-40,13-10.428,3.464-24.506,4.873-28,15-3.181,4.27-1.5,10.679-3,17-3.643,15.349-5.025,30.976-5,49,2.725,1.708,2.5,2.536,7,3,7.639-7.327,20.8-5.664,33-6,4.585-.126,8.887-3.5,13-1,12.648,4.083,11.831,16.85,15,31a84.088,84.088,0,0,1,1,29q0.5,13.5,1,27c-1.659,6.934-4.536,11.658-3,20,9.317,5.881,20.571,12.987,32,17l12,1c4.846,1.279,10.674,3.729,16,5h8c7.254,2.551,11.078,9.066,16,14,0.463,13.238,3.577,30.935-2,39-4.638,6.706-15.3,10.083-21,16-14.74.927-17.644-4.675-28-8-4.914-1.578-11.213.786-15,1H526c-13.542,3.809-15.21,21.815-32,23-1.225-2.281-1.638-2.251-2-6,6.142-5.911,8.959-14.954,14-22,2.943-4.113,8.2-7.694,10-13,1.525-4.5.811-9.377-1-12-1.82-6.483-6.334-12-15-12-2.636,3.8-7.327,6.323-10,10-2.4,3.3-3.348,7.019-6,10-2.116,2.378-5.986,3.625-8,6-3.33,3.928-4.459,10.174-8,14l-18,14c-2.266,3.117-2.736,6.882-5,10-4.249,5.852-12.472,8.349-18,13-2.394,2.014-2.8,5.571-6,7-4.3,1.922-20.262,3.591-23,3-10.873-2.345-16.184,6.574-27,3-27.19-8.985-33.184-58.238-31-89,5.962-4.529,9.8-12.523,16-17,8.247-5.959,25.9-12.748,36-16h10c3.507-.969,8.492-4.038,12-5h9c16.931-4.251,35.94-4.872,51-11,8.854-13.919,12.55-36.932,8-57-3.746-2.512-4.065-3.975-11-4-2.847,2.319-6.88,2.946-10,5-6.3,4.146-12.562,10.1-19,14-2.989,1.811-8.692,3.891-12,2-6.507-2.044-17.577-13.786-14-25,2.38-7.462,9.161-13.891,12-21,4.491-11.247,2.546-23.9,6-36,1.616-5.659,4.148-17.156,1-22-1.274-4.734-2.692-6.076-9-6-12.978,10.947-28.219,18.9-42,29-13.459,9.861-23.977,22.759-36,34-6.223,5.818-14.628,12.622-19,20-5.662,9.555-3.05,22.3-7,34-2.011,5.957-7.716,16.406-11,23-2.625,5.27-6.963,11.045-9,17-3.309,9.675-3.769,17.211-8,26-3.59,7.457-10.433,16.2-7,28,1.833,6.3,18.2,33.753,23,37l12,4c10.442,4.786,18.8,17.705,18,31-21.255,14.109-42.684,7.774-62-4-4.049-2.468-8.882-2.413-13-5-6.72-4.221-14.278-14.156-29-10-12.11,3.419-20.082,15.437-30,21l-30,10-10-4H148c-6.238-2.066-16.8-8.633-19-15-1.862-3.04-4.285-20.82-4-25,2.637-2.506,4.812-7.237,8-9,6.19-3.423,12.367-3.339,17-8,3.478-3.5,5.03-9.006,8-13,3.076-4.137,8.375-6.381,12-10,5.492-5.483,8.335-12.587,13-19,5.562-7.647,19.575-17.272,23-26,1.826-4.654,2.827-12.17,4-16V508c3.914-12.678,10.889-24.806,13-39,1.272-8.553-9.9-13.355-7-25,2.409-9.668,7.629-18.3,5-32h-5c-3.851,7.041-5.862,15.076-10,23-3.022,5.786-9.187,10.924-12,17-2.539,5.483-2.83,11.138-6,16-4.732,7.257-11.411,14.433-16,22-4.864,8.022-6.058,16.948-11,25-5.4,8.8-13.911,16.708-20,25-4.515,6.148-6.529,13.533-11,20-6.494,9.393-28,17.866-41,17-3.473-3.133-9.241-4.18-12-8-2.954-4.09-2.017-7.341-4-13-2.059-5.878-8.891-12.232-10-19-0.835-5.1,4.734-11.764,6-15V510c3.387-11.816,10.572-24.715,15-35C87.974,465.768,95.027,441.27,105,440ZM906,300c2.532-.074,3.716-0.12,5-1,9.634-3.65,16.106-14.2,24-20,25.705-18.893,47.583-40.9,70-63-0.33-14.965-15.934-32.982-21-46-2.528-6.5-2.487-19.477-5-23-1.568-1.829-.882-1.4-4-2-2.483,1.6-9.372,5.657-14,7v-1c8.13-9.89,25.748-32.635,18-54-2.991-8.249-12.007-12.381-13-22,2.667-.924,6.931-1.051,11-1,6.5,3.906,22.716.2,28-2,7.61-3.17,11.66-11.7,20-14,7-1.927,14.72,1.744,19,3,20.98,6.154,36.96,5.6,35,32-2.66,1.836-3.53,5.209-6,7-3.89,2.814-9.82,2.285-14,5q-3.495,4-7,8-0.495,18.5-1,37c-2.42,10.661-6.37,22.23-4,35a17.3,17.3,0,0,1,5,3c21.29-5.511,33.41-25.6,54-32,5.77-1.793,11.07-.219,16,1,18.11,4.48,31.2,2.431,31,25-6.03,6.326-8.06,13.9-17,18-7.67,3.513-16.79,2.607-25,6-12.33,5.1-27.93,12.526-40,18-16.39,7.436-32.33,8.894-27,35,2.64,1.648,4.98,4.9,8,6,6.05,2.2,11.33.847,16,4,1.67,2,3.33,4,5,6,0.96,18.321-13.05,43.623-22,56-6.45,8.916-20.45,13.555-22,27,5.23,2.149,16.54,5,19,10,2.94,4.474.09,13.493-1,17-4.17,13.4-12.51,22.453-14,36a25.074,25.074,0,0,0,8,1c7.95-8.109,19.45-12.451,29-19,11.31-7.757,21.9-20.158,36-25,17.35-5.959,39.74,6.607,44,18,3.19,8.529-1.83,19.732-4,28v16c-1.56,6.445-1.72,16-4,23-4.74,14.567-13.71,25.245-14,45,4.08,4.056,6.56,9.25,12,12l14,3c4.2,1.4,9.79,4.612,14,6,6.68,2.205,13.88.759,21,3,11.73,3.694,23.05,17.348,23,33-2.99,2.787-6.21,6.013-9,9-20.55.223-23.59-7.563-36-13-9.13-4-22.21-.245-33-3-5.74-1.466-8.9-4.481-16-5-1.35,2.046-3.7,2.282-5,4-6.6,8.72-8.58,30.129-12,43-3.97,14.936-10.44,29.85-16,43-5.61,13.268-9.63,30.925-26,33-4.33-4.223-10.48-9.246-17-11l-10-1c-6.96-2.946-14.06-8.537-20-13-6.98-5.242-15.367-15.549-20-23-3.5-5.637-5.162-12.971-11-16-7.038-3.652-14.827,1.28-23-1-4.906-1.369-9.739-5.235-14-7-8.523-3.531-18.392-2.791-25-8h1v-1c12.565,4.362,34.91,5.93,50,3,3.1-4.628,5.83-5.864,6-14-4.933-7.277-14.721-45.676-9-53,1.549-1.049,4.085-1.031,7-1,1.334,6.214,5.944,19.237,13,20,4.74-8.68,14.49-28.126,8-38-1.447-4.6-4.532-6.409-10-7-2.57,1.983-6.162,2.112-9,4-3.228,2.148-7.223,7.631-11,9-3.4,1.234-14.128-1.365-20,1-4.23,1.7-7.208,8.343-11,11-3.381,2.369-7.475,2.638-11,5-11.267,7.55-15.3,16.247-20,31-2.158,6.768-4.46,17.178-1,25H892v-1c-4.508-1.435-5.132-4.163-8-7-0.211-22.891,10.639-46.119,25-55,10.668-6.6,24.831-7.919,35-15,5.677-3.953,9.793-13.4,14-19,5.718-7.612,15.48-12.093,21-20,6.7-9.6,8.35-22.327,14-33,2.092-3.951,6.639-8.085,9-12,3.76-6.241,4.78-13.531,8-20,1.48-2.967,5.9-9.819,4-13-1.2-4.561-3.32-5.21-6-8-11.705,4.806-15.42,14.748-31,15a18.324,18.324,0,0,1-1-6c-3.3-5.615,2.394-14.4,5-18,9.225-12.732,27.66-25.9,32-43,3-11.792-14.671-26.63-15-40-0.24-9.737,14.12-31.539-5-33-9.072,9.917-21.731,17.37-30,28l-15,26c-6.551,9.06-15.822,17.494-22,27-6.524,10.038-6.467,29.277-20,32-1.216.745-.992,0.137-4,0-1.644-2.493-4.3-2.907-6-5-8.375-10.323-4.929-16.451-19-23-1.37-12.543,1.039-25-1-36-2.448-.85-6.184-1.039-10-1-4.887,6.168-13.427,8.416-20,13l-8,10c-0.46,12.4-1.937,24.553-2,38,3.674,2.381,4.441,3.885,11,4a21.2,21.2,0,0,1,15-9v1h1c-9.835,21.907-18.593,34.538-25,61-3.263,13.476-1.919,55.07,1,68v20c2.816,17.6,7.987,48.05,3,70v31c-1.228,4.413-4.746,9.594-6,14q-0.5,18-1,36c-1.074,3.742-4.41,6.925-6,10-4.22,8.159-2.764,16.8-14,18-4.514-4.325-10.775-6.341-16-10-9.994-7-20.664-15.22-32-21l-17-5c-7.788-5.2-9.514-18.443-14-27-1.792-3.419-5.074-6.832-7-10-4.5-7.4-6.054-16.1-11-23-7.21-10.06-19.7-14.932-22-30,2.151-2.719,2.894-6.222,5-9,4.707-6.209,14.814-11.744,20-19,8.945-12.514,15.883-24.981,25-37l12-10,10-21c7.8-11.709,19.248-22.026,26-35,8.227-15.808,8.873-56.411,5-76-22.9-14.322-38.557,26.793-67,19-13.03-3.57-17.662-18.47-26-27,0.631-1.754.193-.971,1-2,1.645-6.769,6.464-6.471,15-6,7.236-5,17.066-5.917,25-10,10.752-5.533,21.532-12.533,32-18,8.6-4.49,19.314-6.842,24-15,6.88-11.979.308-29.357,4-44,4.309-17.089,2.284-39.371,6-56q-0.5-11-1-22c1.965-9.454,7.606-28.056,5-39-2.26-9.49-8.033-15.993-9-26,2.27-2.179,2.507-3.77,6-5,3.532-2.138,13.975.868,18,2,15.386,4.325,40.569,4.463,42,22,4.666,5.3.292,17.135-3,21-18.452,21.666-31.153,46.261-32,86,3.091,2.057,2.926,3.46,8,4,9.793-7.273,20.345,3.642,26,7,11.1,6.59,43.895,10.895,38,33C909.69,291.913,906.648,293.414,906,300ZM2025,58c16.99-.632,41.18,5.055,41,21-6.49,7.18-7.21,19.087-11,29-1.34,3.5-4.88,8.147-6,12-3.49,11.968-1.49,22.234-5,34-3.7,12.377-10.05,27.974-7,41,5.47,2.856,17.22,5.238,18,13-2.95,1.588-5.72,2.075-11,2-1.69,1.142-4.9,1.066-8,1-5.59,9.239-8.39,22.458-8,35,26.68,1.417,34.97-15.47,51-27,7.48-5.378,15.38-8.782,23-14,2.41-1.65,4.52-5.387,7-7,4.39-2.847,9.99-2.936,14-6,2.14-1.638,2.36-4.763,4-7,2.48-3.386,6.59-5.421,10-8,5.3-4,7.12-9.373,11-15,1.81-2.628,5.74-3.762,8-6,9.38,0.7,19.3,4.507,28,7,14.43,4.133,34.27-5.328,35,12-1.77.961-1.68,1.257-4,2-2.33.871-12.86-.444-17,2-16.48,9.737-31.35,41-39,60l-3,14c-2.11,4.226-6.5,8.941-8,14-0.33,3.666-.67,7.334-1,11-3.78,12.455-13.92,19.887-16,34l6,5,23-4c4.03-1.622,9.28-7.442,17-5,5.44,1.722,10.43,7.1,16,9,10.68,3.645,20.57,3.26,24,14-4.32,5.081-7.85,11.948-14,15-7.53,3.733-18.62-1.266-28,1-4.23,1.022-8.36,4-12,5h-13a128.309,128.309,0,0,0-15,5c-3.14,1.322-6.86,4.678-10,6-9.2,3.875-20.79,10.358-31,6-0.62-14.163-2.66-14.478-11-23-21.58-.637-37.71,7.664-55,13-9.19,2.837-17.17,2.689-26,6-16.16,6.062-35.21,13.475-52,19-13.6,4.476-25.02,6.163-36,13-6.72,4.184-17.2,11.7-22,18-2.46,3.232-4.05,7.31-7,10-9.09,8.284-33.45,21.363-36,34-0.92,4.555,2.68,8.553,3,14-5.08,5.42-11.49,15.588-19,18-9,2.892-18.8-6.906-22-11-3.6-4.6-9.3-9.681-12-15-7.31-14.421-.03-26.221-4-43-2.05-8.653-6.92-16.064-5-26,10.39-5.1,24.59-.388,37,3a185.231,185.231,0,0,1,12,23c0.33,3,.67,6,1,9,0.9,1.847,2.48,2.33,5,3,2.1-2.237,5.33-2.268,8-4,7.35-4.757,14.57-11.381,22-16,4.58-2.849,9.23-3.347,14-6,3.8-2.113,7.21-6.982,11-9,34.91-18.608,74.68-32.55,112-48v-1c-13.05.136-15.78-5.691-22-12-0.15-19.622,7.97-26.886,12-40,4.51-14.678-13.86-18.582-9-36,3.78-13.539,14.7-16.786,15-36-3.04-1.782-3.84-2.781-9-3-11.15,11.423-32.28,13.14-41,27-2.26,3.595-1.53,7.536-3,12-3.49,10.559-7.48,25.6-11,37q-0.495,7-1,14c-2.51,10.164-5.13,22.7-10,31-3.54,6.023-14.91,15.229-27,12-3.84-1.027-8.45-5.737-13-3-7.96,4.787-.76,18.094-4,28-2.29,7-9.35,10.275-14,15h-5c-8.15-7.7-15.58-14.486-19-27-3.6-13.17,3.46-23.565,6-31,2.9-8.476,1.09-17.314,2-26,0.21-2,1.81-7.394,1-11-2.23-9.912-.35-23.324-3-34-2.53-10.164-8.47-20.805-8-28h7c8.11,5.533,16.92,1.926,23,11,5.61,8.371,7.46,34.272,18,36,7.08-22.824,30.21-29.513,40-49,4.04-8.043,1.6-16.529,4-27,3.06-13.332,4.83-30.078,8-44V155c1-4.258,4.6-10.945,3-17-3.12-11.838-11.01-9.84-9-27,8.7-.063,12.12,3.294,18,5,6.84,1.982,12.75-.117,17,4,6.77,6.569,9.36,24.714,6,38-4.6,18.174-14.52,30.575-16,52,2.65,1.678,4.53,3.949,7,3,16.28-4.254,36.09-16.174,43-30q1.005-7.5,2-15c2.89-10.939,4.7-23.7,7-34V121c1.74-7.906,8.37-27.483,6-37C2030.8,75.178,2025.28,70.182,2025,58ZM1596,77c21.3-.24,26.2,4.677,36,15,3.45,3.635,9.77,10.79,7,20-1.92,6.388-7.37,14.373-5,25,3.39,15.218,0,24.424-3,37-4.32,18.1,2.58,31.7,1,49-1.34,14.665-2.09,27.52,5,38,3.53,5.213,9.85,8.233,15,12,9.91,7.24,15.43,19.37,24,28,8.32,8.373,21.1,6.646,22,23-3.77,3.722-5.07,8.271-12,9-3.57,2.117-10.57.119-14,0-6.34-.221-33.69,13.147-36,17-4.28,7.158-11.3,31.614-8,45,1.39,5.658,4.11,18.5,2,27-0.79,3.181-3.19,7.823-4,11q1.005,13.5,2,27c-3.34,18.086-5.55,36.455,0,56,1.25,4.4-.42,12.128-1,15-1.06,5.211,2.06,11.146,3,15,1.98,8.117-1.77,15.626-3,21-0.99,4.36,1.33,8.235,2,11v32c4.14,17.391,12.37,39,8,62-3.2-.064-3.86-0.74-4,5-4.24,7.49.97,16.03-9,18-4.61-4.32-11.45-7.762-15-13-2.22-3.269-2.63-9.086-6-11-0.76-.434-2.04,1.961-4,1-3.03-1.483-9.01-10.563-10-14-2.04-7.084,1.71-17.27,3-23q0.495-10.5,1-21c2.73-11.02,3.32-26.472,6-39,1.46-6.8-1.88-13.238-3-18-1.66-7.031.93-15.3,2-20q-0.495-13.5-1-27c1.26-5.845-1.47-12.183,0-19,0.75-3.491,2.92-9.369,2-14-0.63-3.173-2.26-11.294-1-16,3.16-11.828,1.17-22.03,2-37,1.03-18.741.47-35.107-3-53-2.39-1.556-2.92-2.923-6-4-7.74,5.843-17.92,7.759-26,13-15.56,10.1-42.82,31.456-66,32-7.07-5.512-14.85-8.653-19-17-10.92-21.971,16.74-48.113,25-60,2.54-3.656,8.64-4.449,11-8-3.94-7.487,17.37-25.291,15-32-4.41-11.648-28-13.417-22-35,2.73-9.833,10.39-17.756,14-26,2.46-5.6,1.94-13.131,5-18,2.92-4.645,12-15.518,10-21-1.19-3.843-2.21-4.646-7-5-5.16,4.9-14.56,5.414-19,11-5.16,6.5-5.55,22.135-16,23a18.3,18.3,0,0,1-1-6c3.04-4.475,3.31-10.1,6-15,7.59-13.819,25.13-39.66,51-31,4.33,1.448,8.65,5.566,12,8,4.9,3.565,10.82,4.671,13,11,2.02,2.522,2.1,6.21,2,11-16.82,10.837-21.1,23.006-33,38-5.89,7.421-15.29,11.116-17,23,3.15,3.008,3.25,4.053,10,4,2.67-2.289,12.64-4.991,17-2,4.85,1.651,6.71,5.833,10,9-0.08,21-13.9,24.386-24,35-4.35,4.571-6.9,11.228-12,15-3.26,2.412-10.76,3.639-13,7,4.47,8.688-22.56,30.1-19,40,1.04,3.261,1.78,3.918,5,5q4.995-1.5,10-3c4.38-2.579,8.63-7.395,13-10,8.98-5.357,19.2-6.4,29-11,2.54-1.193,4.61-4.757,7-6,8.92-4.641,19.8-4.636,28-10q4.005-4.5,8-9c0.77-10.553.34-29.058,3-40,0.84-3.443,3.79-10.356,2-16-0.55-1.721-3.45-5.279-4-7q-0.495-13-1-26c-3.17-10.51-11.49-21.254-15-31v-7c-1.2-4.549-3.84-10.534-5-15V159c-1.18-4.458-3.81-14.7-2-22,1.37-5.528,4.35-11.871,5-18,0.16-1.561-1.8-5.849-1-9,1.73-6.784,3.15-14.635,6-22C1587.82,83.285,1593.11,80.714,1596,77Zm872,388-3,10c-4.64,2.55-4.87,5.569-12,6-2.59-3.567-6.18-6.55-12-7-7.43,6.383-19.47,4.294-29,9-6.5,3.212-15.53,7.6-22,12q-3.495,4-7,8c-3.43,2.33-7.21,1.87-11,4-5.45,3.065-12.32,8.847-18,12-5.06,2.808-10.47,2.749-15,6-4.83,3.47-7.4,12.191-11,17-6.41,8.549-15.94,11.908-25,18-4.96,3.336-8.74,10.788-13,14-5.05,3.811-11,1.184-17,2-4.07.553-7.9,3.336-13,4-6.64-5.158-14.14-7.982-21-13-6.91-5.058-13.55-19.87-17-28-5.54-13.061-2.15-27.413,12-28,1.21,0.958,30.71,6.59,34,7,4.6,0.572,28.86-9.361,36-12,7.84-2.9,12.74-1.514,21-5,7.87-3.321,17.14-8.533,26-11l17-1c6.74-2.706,12.75-9.111,19-12,11.75-5.431,40.16-6.556,49-13,0.8-1.021.35-.274,1-2-3.05-3.887-4.24-8.819-7-13-11.66-17.634-23.51-34.669-29-59h-1c0.12,16.1-6.08,23.267-9,35q0.495,10.5,1,21l-12,11h-11c-6.63-10.983-16.68-20.812-20-35-3.21-13.709,8.22-32.593,11-41,2.69-8.132,2.22-20.834,4-29,1.31-6-1.11-12.006-2-16-1.93-8.7,3.65-14.867,2-22-0.92-4-4.06-9.846-5-14q1.005-11.5,2-23c2.46-1.533,2.28-2.291,6-3,6.45,11.451,10.85,24.411,18,36,3.08,4.99,8.89,11.376,11,17,1.39,3.7,4.22,17.4,3,22-0.41,1.53-2.37,1.934-2,5,1.15,9.573,2.39,24.371,3,33,14.12-.385,17.12,13.045,24,23,4.87,7.05,17.69,10.633,28,12,2.16-1.813,4.88-3.306,7-5,8.51-20.007-3.13-47.953,2-67,2.07-7.695-1.21-19.7-6-22-8.97-5.368-28.52,16.9-40,18-0.14-5.5.5-8.732,2-12,2.91,0.058,1.39.964,3,0,5.46-5.625,9.26-11.52,14-18,5.63-7.7,16.56-10.882,20-21,2.62-7.719.48-19.5-1-26-1.84-8.083,1.85-18.479,1-25-0.76-5.779-1.95-13.355-2-20V204c-1.2-5.428-2.34-12.795-1-19,3.08-14.282-2.65-29.459-10-34-3.84-2.374-10.48-1.324-13-5-3.03-4.418-1.79-10.359,2-13,7.52-5.233,27.94-3.613,35,1,3.38,2.205,5.26,6.113,8,9,5.66,5.968,14.46,13.394,17,22,0.75,2.555-.79,5.992-1,7q-0.495,10-1,20c-1.99,7.119-5.59,15.5-7,24,0.33,2.666.67,5.334,1,8,0.25,14.8,1.93,29.658-1,39h1c4.36-4.305,10.32-3.657,16-7,11.86-6.98,44.69-27.623,50-39,5.34-11.452.88-24.578,4-39,3.17-14.662-2.91-35,1-53a85.044,85.044,0,0,0,2-19c0-7.412-2.27-11.077-1-18q3.495-3,7-6c7.82,2.469,17.59,3.286,22,9,1.75,2.273,2.11,4.982,4,7-0.21,13.615-5.09,23.01-7,34-0.61,3.509,1.54,5.071,2,7q-1.005,8.5-2,17c-2.82,9.514-7.04,20.558-5,32,8.47,5.26,17.44,13,27,17,6.17,2.583,11.62.6,14,7,1.24,1.838,1.09,5.7,1,9-3.23,1.994-7.29,5.775-11,7-11.34,3.746-23.52.249-32,6-9.95,6.751-21.03,46.087-21,64,3.75,2.575,4.01,5.338,10,6,1.92-1.422,4.54-.757,7-2,4.89-2.469,9.67-9.25,15-11,13.69-4.494,28.9,13.953,38,17v-1c3.69-3.774,6.5-10.225,7-17-2.88-1.834-3.61-2.421-4-7,7.03-4.569,14.97-12.055,21-18,7.65-.541,16.54-2.048,22,2,1.85,2.811,1.13,10.487,1,15-1.62,1.673-2.3,3.3-3,6-8.09,3.636-23.81,7.168-29,14-2.79,3.671-3.38,8.126-6,12-2.84,4.2-7.14,5.4-8,12,3.33,2.23,3.19,3.688,9,4,8.07-6.149,21.26-6.69,33-9,1.93-7.614,6.59-13.542,8-22,0.6-3.608-1.46-3.527-2-5-1.59-4.339-.52-9.826,1-15,1.9-6.473,7.28-14.125,9-19,2.24-6.378-1.28-10.2,0-16,2.63-11.889,6.58-28.036,4-42-10.35-6.31-36.57-6.862-41-18-0.96-1.418-.98-3.273-1-6,3.36-1.874,8.52-5.6,13-6,3.79-.34,14.42,1.5,21,0,6.71-1.526,13.59-4.491,19-6l23,1c4.57-1.207,7.84-3.636,14-4,5.08,10.064,11.26,16.658,12,32q-3.495,3-7,6c-7.89,3.231-15.43.856-20,7-6.71,9.025-10.8,27.656-14,39q-0.495,11.5-1,23c-3.69,13.925-3.94,28.9-8,44-4.48,16.643-13.88,46.865-13,65,3.09,2.057,2.93,3.46,8,4,8.15,5.114,21.26-.2,29,1,11.75,1.821,23.2-4.526,33-7,8.9-2.248,20.42,1.567,27,3,5.57,10.793,17.65,16.532,18,32-5.21,5.71-5.01,8.329-17,8-4.24-3.751-23.07-9.09-30-10-8.91,8.882-19.55,12.28-34,16l-15,2c-12.12,5.207-22.12,12.685-40,13-5.32-5.305-16.15-13.983-20-20-2.57-4.015-2.09-12.422-6-15-8.43,7.168-31.37,8.444-43,13-7.96,3.12-12.95,11.049-20,14-7.95,3.33-17.43-.547-26,3-11.77,4.871-26.27,11.654-38,16l-20,4C2482.28,458.712,2475.85,463.677,2468,465ZM6070,204c-16.13.219-42.74,5.185-53,12-2.39,1.585-4.5,5.512-7,7-4.23,2.523-11.56,3.9-14,8-3.03,5.094-2.85,10.216-5,16-4.83,13-8.63,25.534-14,39-5.56,13.949-15.53,25.529-16,44h2c7.33,4.416,23.82-6.219,29-9,7.92-4.256,13.26-8.617,20-13,8.89-5.785,19.17-7.3,28-13,7.19-4.644,10.9-12.087,22-13,8.88,6.445,24.07,3.54,28,15,0.88,1.3.89,2.467,1,5-10.87,7.139-23.64,11.528-36,18-6.39,3.346-12.91,9.236-19,13-5.49,3.39-13.89,5.551-17,11-0.33,2.333-.67,4.667-1,7-1.88,5.635-5.48,11.909-7,18-3.23,12.973-.71,23.755-4,36-6.24,23.243-16.62,45.962-22,69q0.495,12,1,24c-2.67,1.441-4.22,1.994-9,2a36.288,36.288,0,0,1-3-3c-2.44-3.019-2.32-7.055-4-11-1.82-4.281-5.98-10.075-7-15-1.39-6.733,11.38-26.814,14-33,5.64-13.3,8.3-26.444,14-40,1.84-4.378,5.45-10.257,7-15q0.495-7.5,1-15c1.47-5.695,3.76-8.753,4-17-8.47,1.178-16.13,9.277-28,6-4.72-1.3-9.83-5.907-14-7-3.77-.988-3.27,2.9-5,1-0.83-1.554,1.01-4.068-2-6-0.63,18.916-16.67,24.906-18,43a28.894,28.894,0,0,0,9,1v-1c6.36-2.24,7.88-8.931,13-12,2.06,3.864,5.49,1.856,9,4-7.44,5.065-11.85,13.717-19,19-15.39,11.374-38.38,25.554-45,45-3.45,10.145-1.83,20.291-5,30-5.62,17.229-11.53,37.887-17,55-2.1,6.58-1.54,12.073-4,18-2.56,6.177-7.59,12.649-10,19-3.38,8.923-3.68,16.094-7,25-1.57,4.222-5.32,9.022-7,13-3.05,7.212-3.24,13.851-7,20q-5.505,5-11,10c-38.6,2.484-34.73-51.214-70-52-6.35,5.019-21.49,11.655-32,12-3.27-2.584-7.8-3.356-11-6-7.04-5.824-13.33-13.682-20-20,0.36-31.851,25.68-18.655,44-30,4.19-2.6,7.82-7.382,12-10,3.02-1.892,6.23-1.952,9-4,5.04-3.727,7.71-11.4,13-15,10.77-7.317,20.94-12.462,31-20,8.83-6.614,16.04-16.485,25-23,4.98-3.619,10.36-6.185,14-11,2.1-2.78,3.3-5.937,6-8,2-1.527,4.66-1.942,6-4,2.56-3.945,1.67-8.746,3-14,0.77-3.059,2.85-10.564,2-12-1.46-2.542.22-1.128-3-2-3.63,2.723-8.15,2.494-10,7-5.85,14.212,1.28,24.858-15,30v-1c-2.06-2.013-2.88-6.162-5-8-2.65-2.3-5.65-2.513-8-5-14.77-.055-18.5,7.339-27,13-9.45,6.29-20.09,9.452-29,16-9.07,6.664-18.14,17.51-32,19-1.71-1.284-3.82-.732-6-2-6.86-3.989-10.55-14.324-16-20-2.57-2.676-9.35-6.987-7-14,0.97-2.889,5.01-4.926,7-7,10.86,0.44,22.73,3.79,34,1,1.28-11.367-5.28-24.8-11-33-2.77-3.974-11.05-8.6-9-14,1.12-2.873.17-1.842,3-3,2.63-1.863,8.4-2.314,12-3,4.25-6.749,9.3-13.191,12-22l3-22c3.69-10.213,9-23.792,12-34,0.33-3.666.67-7.334,1-11,1.83-5.936,6.11-11.82,8-18,3.21-10.526,2.75-20.043,6-30,1.72-5.265,4.59-12.561,6-18,1.53-5.932.18-10.08,2-15,1.43-3.869,5.63-9.045,4-13-3.63-9.56-13.12-6.691-23-10-11.27-3.774-35.31-18.183-36-32,2.93-1.874,3.5-3.286,8-4,20.29,19.388,45.83,13.073,70,3,6.45-2.686,14.63-1.522,20-5,6.5-4.211,14.4-12.521,22-15,5.07-1.654,37.88,6.9,41,9l6,7v8c-4.06,4.014-6.18,9.72-12,12-7.79,3.054-22.39,2.987-26,10h1c2.72,3.049,11.25,2.208,17,2a11.688,11.688,0,0,0,5,2c1.42,4.2,4.85,6.849,6,11,3.12,11.3-2.91,22.915-5,30q-1.005,12-2,24h2c9.93,5.539,25.09-2.3,22,15-22.41,13.819-33.47,14.518-34,51,4.72,2.853,10.51,6,17,7-0.2,2.328-.19,2.826-1,4-3.58,10.04-17.66,11.8-22,19-3.8,6.3-1.09,11.194-3,18-2.19,7.794-6.81,11.73-7,22l5-1c2.14-6.611,7.08-12.177,10-19,3.56,0.8,8.3,2.7,10,2,9.13-10.145,11.56-23.76,19-36,6.09-10.021,10.13-22.188,16-33,2.51-4.619,7.02-9.93,9-15,3.49-8.911,3.39-17.078,7-26,1.18-2.915,4.95-6.678,6-10V246c1.61-4.833,7.47-8.481,9-13,1.5-4.456-1.75-10.769,1-16,1.56-2.961,5.67-6.447,7-10,2.65-7.069.54-16.378,3-23,8.39-22.615,31.79-46.6,32-75,3.31-2.2,3.93-4.187,9-5,3.28,2.444,19.1,9.674,23,11,4.35,1.478,7.65.746,11,3,3.01,2.028,4.51,6.378,7,9-0.03,11.3-5.25,14.164-9,21l-3,9c-3.43,5.283-9.51,10.506-13,16-5.28,8.307-7.77,17.394-13,26-2.86,4.708-6.19,7.823-7,15h1c5.7-6.854,17.13-8.228,26-12,10.24-4.354,22.9-10.594,33-14,11.27-3.8,25.57-.972,37-5,8.38-2.954,18.63-14.547,26-16,6.75-1.331,11.43,7.434,15,10,9.41,6.763,22.89,4.582,23,21-2.44,1.805-3.57,5.348-6,7-11.01,7.475-32.66,9.326-46,15-5.25,2.234-10.86,6.754-16,9-4.97,2.175-9.86,1.88-15,4a194.545,194.545,0,0,0-38,21c-6.29,4.566-10.87,12.383-17,17-4.46,3.361-9.18,4.711-14,8-8.99,6.136-10.78,17.636-26,18v-2c2.48-3.637,2.54-8.375,5-12,6.95-10.237,24.32-20.5,32-31,11.98-16.379,27.32-35.647,46-45v-3ZM4663,329c0.37-2.076.24-1.924,1-3,13.77-14.081,36.03-24.569,53-35,7.97-4.9,17.28-6.988,22-15,5.92-10.037-.73-22.2,2-35q1.5-9,3-18c-1.41-12.245-10.79-17.768-12-31,13.09-8.483,11.02-1.07,27-5,14.1-3.466,22.5-9.445,34,2,2.8,2.789,5.05,3.051,6,8,3.65,4.985,2.18,18.075,0,24-5.79,15.776-16.26,29.1-17,50a2.909,2.909,0,0,1,1,1c15.42,1.354,31.65,9.43,32,26-3.92,5.127-9.1,14.492-12,20-2.99,5.676-11.16,17.341-8,27,3.09,9.455,42.35,25.186,54,23,16.98-3.185,35.65,4.615,38,16-9.94.127-25.64,11.524-33,16-18.49,11.248-61.09,18.025-54,50,1.45,6.553-.22,11.677,2,17,9.13,21.854,42.32,20.416,66,28,9.96,3.191,18.86,9.843,29,13,8.56,2.664,24.65,5.606,33,4,2.27-3.289,6.67-6.034,8-10,4.53-13.5.61-36.953-2-48q-1.005-11.5-2-23c-9.22-31.3-14.72-65.332-23-98q-0.495-9.5-1-19c-1.08-4.293-2.9-11.2-4-16V264c-3.14-13.753-4.76-30.687-8-45V199c-3.29-14.815-1.93-33.643-5-47-39.85-27-103.03-2.021-143,7v-1h1c8.93-13.169,28.55-19.278,44-26,7.51-3.267,15.19-8.79,23-12,17.72-7.282,36.86-6.294,58-11,5.86-1.305,16.7-3.934,25-2,4.79,1.118,12.32,3.2,17,4,18.7,3.216,33.14-2.975,44,12,13.8,19.027,3.99,44.347-1,65-3.4,14.039-1.21,26.3-5,39-2.51,8.414-4.7,18.641-7,29-2.3,10.379,2.86,18.075,2,28-1.92,22.094-.78,36.507,4,57q0.495,12,1,24c3.25,13.616,4.84,30.74,8,44,4.07,17.071.09,32.931,4,50,6.21,27.141,9.76,87.295-2,108-2.54,4.469-8.37,6.532-12,10-25.86,2.177-31.78-7.6-50-13-17.32-5.137-41.18-3.6-55-12-6.1-3.7-29.44-22.3-40-16-10.61,3.475-9.87,12.751-13,24-2.05,7.374.86,24.655-2,37-3.95,17.068-2.57,40.907-6,59-1.04,5.515,1.67,10.89,0,16-2.1-.669-8.6-0.761-9-1-6-9.879-1.06-33.467-4-47-6.01-27.69-1.48-56.728-8-85-2.2-9.544,0-20.228-4-28-6.43-12.488-28.23-18.52-40-26-19.63-12.477-37.41-28.342-51-47-2.12-2.913-6.15-8.767-9-11-1.47-1.146-5.17-1.421-6-3v-9c-2.44-3.309-3.01-8.331-3-14a2.909,2.909,0,0,0,1-1,2.909,2.909,0,0,1,1,1c7.94,4.687,10.93,13.663,18,19,7.4,5.586,15.89,9.95,23,16,2.33-.667,4.67-1.333,7-2,9.62-14.857,15.29-32.94,24-49,5.32-9.8,13.14-19.821,17-31,4.81-13.926-1.5-39.752-14-41-3.89-1.863-12.22,2.428-16,4-13.69,5.7-26.64,13.674-42,16v-1c1.26-1.359,1.37-1.768,2-4h-6C4667.58,328.961,4665.73,328.976,4663,329ZM3819,524c-11.9.144-25.07,9.057-39,11-11.12-9.323-16.97-16.59-21-33-3.33-13.564,1.65-31.2,4-42,4.87-22.357,3.98-63.336-1-83a15.662,15.662,0,0,0-5-1c-5.62,5.8-14.06,7.383-21,12-5.44,3.619-11.16,9.633-18,12l-13,1c-5.63-1.489-10.37-5.61-15-8l-5-1c-3.69-2.326-2.15-7.044-7-9-8.9,15.735-12.11,56.594-7,80,2.43,11.1-2.19,25.5-1,35,3.39,26.944,1.22,54.851-5,78-5.37,20-6.72,48.706-30,50-7.78,4.555-22.99-5.217-27-9-9.34-8.822-16.2-19.581-24-30-9.35-12.5-21.06-23.772-30-37-3.14-4.647-6.5-22.575-11-24-2.63,5.1-.98,7.5-3,14-2.17,6.985-6.48,15.015-9,22q-4.5,21.5-9,43c-3.86,2.6-4.3,4.7-11,5-6.74-9.751-17.27-19.549-21-32-1.94-6.494,2.56-13.8,4-18,4.34-12.622,7.49-26.179,11-38,1.72-5.8.27-9.208,2-15,2.13-7.144,5.88-15.585,8-23q1.005-7.5,2-15c2.67-8.748,7.41-18.787,10-27,6.85-21.687,7.44-43.815,16-64,7.73-18.219,25.59-45.755,26-69a18.289,18.289,0,0,0-6-1c-8.32,13.395-24.01,20.223-36,30-3.67,2.994-10.62,10.241-16,8-17.22-4.49-15.17-37.942-7-49,2.34-3.169,6.69-5.775,9-9,4.8-6.7,6.61-14.947,11-22,7.18-11.528,15.9-23.425,23-35,2.38-3.879,2.63-8.117,5-12,9.46-15.476,20.23-32.182,27-50,5.39-14.183,15.59-43.539,6-59h10c2.74,3.06,7.35,2.766,11,5,6.92,4.233,12.26,10.563,18,16,0.33,2.333.67,4.667,1,7-10.75,11.342-17.33,24.315-26,38-4.05,6.389-10.81,11.853-15,18-8.94,13.1-16.03,26.2-25,39-9.26,13.211-26.62,34.551-27,55a28.894,28.894,0,0,0,9,1c4.98-4.636,12.96-5.311,19-9,6.42-3.921,11.98-9.788,18-14,7.85-5.488,15.86-8.836,24-14,11.07-7.022,22.03-15.295,33-23,5.5-3.863,10.44-10.282,17-13,14-5.8,31.95,5.916,32,19-2.45,2.284-3.64,5.636-6,8-15.36,15.388-33.77,27.46-47,45-4.47,5.925-14.15,10.916-15,20l3,1c2.65,1.642,7.23-.143,11,1,9.28,2.814,24.78,4.514,32,10,7.17,5.452,8.5,25.731,17,27,1.02-.8.27-0.355,2-1,6.18-12.817,14.74-24.9,23-36q7.005-6.5,14-13c2.71-3.581,4.32-7.44,8-10v2c-10.23,8.083-21.99,26.743-28,39l-3,11c-1.67,1-3.33,2-5,3l-3,14c-2.72,8.127-7.76,12.639-8,24a15.662,15.662,0,0,0,5,1c5.91-7.27,14.7-8.875,23-14,9.4-5.8,17.53-14.29,27-20,27.2-16.4,39.11-10.429,39-56q-0.495-8.5-1-17c-2.01-7.878-.14-18.688-2-25-3.5,1.635-5.2,2.455-6,7,2.2,1.706,2.49,2.421,3,6h-1c-1.98-3.12-2.82-3.84-8-4-3.17,4.78-20.53,19.051-26,21v-1h1a125.52,125.52,0,0,1,28-30c3.54-2.606,8.08-3.9,10-8,5.5-11.757,1-26.914,4-43a58.4,58.4,0,0,0,0-11c-2.18-13.77-.44-31.251-15-32-1.58,2.133-4.48,2.948-6,5-2.83,3.834-3.1,8.233-7,11v-2c8.25-9.639-2.07-32.9,6-43,1.29-.877,2.47-0.894,5-1,6.84,9.911,21.12,8.058,31,15,15.5,10.9,11.01,38.249,11,62,2.2,1.664,2.03,2.836,5,4,1.42,0.961,3.27.976,6,1,4.25-4.051,11.4-5.334,15-10,6.17-7.989,9.79-19.089,22-21,8.89,6.685,31.78,8.217,36,19,0.88,1.295.89,2.467,1,5-17.92,5.155-38.88,17.523-49,31-3.4,4.529-6.08,9.06-10,13-5.51,5.534-16.94,11.667-18,21h1v1c38.9,3.629,61.75,3.514,83,26a14.159,14.159,0,0,0-1,4c-18.3,11.607-39.84,22.981-59,33-15.62,8.168-33.96,15.437-43,30-9.32,15.013-3.43,35.121-8,55-3.57,15.547-16.61,59.429,2,66,11.9,9.469,30.39-4.738,40-8l12-2c6.32-2.545,13.15-6.688,20-9,7.11-2.4,14.21-2.286,20-6,4.43-2.844,12.31-12.493,21-10,6.24,1.789,11.73,8.707,17,12,8.47,5.3,41.87,18.18,30,35-5.9,15.7-39.06,13.157-53,22-31.95,20.277-62.35,41.628-92,64-3.4,2.568-5.69,7.355-9,10-4.15,3.309-8.62,4.913-13,8-5.46,3.85-9.24,11.216-15,15-3.2,2.1-7.3,1.151-11,3-4.33,2.165-5.95,5.938-12,7v-1h1c19.36-21.449,41.37-39.641,59-63,5.7-7.548,18.68-11.564,20-23C3819.24,531.162,3819.09,527.3,3819,524ZM5558,114c7.62-.146,14.92.169,20,3,7.05,3.93,26.11,22.693,27,32,1.84,2.672.66,7.113,0,10-3.95,2.441-7.1,6.458-12,8l-37,3c-23.12,6.1-41.23,13.411-66,19-11.6,2.618-43.36.037-45,13,5.21,3.1,34.89,22.62,37,26,1.33,2.129,1,5.631,1,9-12.23,4.81-24.64,5.695-38,9-7.2,1.78-16.61-.253-21,2-9.04,4.64-10.99,15.127-15,25-2.03,4.993-10.08,17.013-5,25,5.95,15.19,38.42,21.982,40,40q-4.005,3-8,6c-8.38.326-23.69,1.348-33-1-1.81-.457-3.61-2.82-7-2-8.17,1.974-11.23,13.907-20,16-11.37-8-28.18-.884-40,2-15.08,3.68-33.14-2.829-40,18-1.7,5.164.56,11.468,0,16-0.4,3.2-3.28,7.259-2,10v1h2c7-11.181,16.58-20.356,25-30,3.97-4.548,5.36-11.1,13-12,3.01-2.018,10.68-1.338,13-1l12-1a143.827,143.827,0,0,1,33,12c0.22,29.9-1.53,58.756,4,83,1.43,6.287-.54,14.188,0,18,2.72,19.082,7.23,42.973,1,63-3.55,11.419-12.8,20-18,30-13.25,1.457-22.62-5.716-36-5-5.09,7.949-14.01,13.019-19,21-3.96,6.338-4.84,13.886-8,21-4.11,9.261-12.64,16.838-18,25-10.27,15.629-20.32,37.532-45,38-1.37-2.542-1.92-3.5-2-8,2.6-3.485,2.08-8.61,4-13,6.04-13.8,14.78-23.41,15-44a2.909,2.909,0,0,1-1-1c-15.77,7.756-26.79,23.983-43,30-17.11,6.351-39.62-6.514-40-24,4.71-3.7,6.28-7.845,14-9,3.28,3.423,11.34,5.553,16,2,4.75-1.746,15.67-14.249,21-18,19.17-13.492,36.5-24.891,51-43-3.09-15.08-13.89-22.662-20-36-2.01-4.388-8.14-9.875-6-18,5.28-20.013,14.5-39.327,20-58q1.005-10.5,2-21c2.35-9.08,8.67-26.012,5-34-1.5-2.584-3-2.115-7-2-9.29,6.469-21.27-5.592-23-11-6.29-7.933-3.51-25.19,2-32,2.33-1.333,4.67-2.667,7-4,2.48-4.082,3.81-17.954,4-24h-1c-4.89,4.695-11.22,5.985-17,10-15.47,10.758-30.86,23.743-48,33-5.3,2.865-19.21,4.286-24,1-6.77-2.046-14.01-10.06-17-16h-1c-0.71,5.16-3.14,5.579-5,9-11.51,21.187-30.01,14.449-38-5-7.86-19.131,2.05-31.29,6-46V269c3.07-12.983,4.68-28.856,8-43,3-12.785.13-33.337,6-43,1.6-2.633,8.43-6.007,11-2,2.69,4.195,1.51,11.273,3,16,3.61,11.438,13.3,28.694,7,40h2c4.37-4.188,9.39-3.571,15-7,14.02-8.575,28.5-21.281,44-28l9-2c16.99-7.205,33.28-18.975,51-26,6.78-2.686,13-2.2,20-5,34.97-13.98,73.68-24.278,113-35l18-1c23.5-5.472,51.49-3.544,71-8,7.91-1.806,16.09-1.1,22-1,7.22,0.119,16.85-5.032,24-8C5553.63,114.906,5556.04,115.409,5558,114ZM252,121c-3.609,9.916-3.115,26.438,1,35h2V129C253.308,126.07,255.252,123.846,252,121Zm1344,0c-5.56,11.855-5.53,50.531,0,64h1V175c2.07-3.17.85-11.113,1-16C1598.27,150.477,1599.31,125.79,1596,121Zm2729,8c13.33-.1,44.59,14.417,46,25-2.28,1.225-2.25,1.638-6,2-5.37,3.122-19.55.938-27,1-8.1.068-13.03,2.435-19,4l-14,1c-17.84,5.147-38.77,12.774-54,21-10.3,5.564-21.53,6.131-31,12-10.79,6.687-20.25,16.328-31,23-10.96,6.8-26.06,10.384-33,21h-1v-2c-0.8-1.18-.77-1.681-1-4,4.55-4.7,7.87-12.017,13-16,4.57-3.554,10.26-4.7,15-8,2.86-1.99,4.11-4.652,8-6v-1c-10.65.894-18.96,8.633-28,12l-16,2c-27.85,8.161-46.26,6.516-59-17-3.1-5.714-6.05-9.5-6-19h2c9.92-5.735,22.82,10.218,36,7,31.59-7.715,67.21-18.287,97-28,5.47-1.782,9.8-.27,16-2,8.46-2.36,18.5-6.264,27-9l13-2c14.81-4.488,32.38-9.755,46-15C4321.17,129.779,4322.84,130.708,4325,129ZM998,132c-2.468,2.65-5.352,5.529-8,8-1.2,11.266,3.993,35.513,15,36a17.885,17.885,0,0,1,3-4c-2.38-13.331-4.94-28.592-8-40h-2Zm4508,2c-5.43,3.3-14.6.727-22,2-9.64,1.66-25.63,4.121-37,4-0.28-2.6.02-1.968-5-2-5.77,3.54-14.18,1.139-22,3-18.56,4.417-34.47,4.487-51,10-15.75,5.253-32.65,12.644-48,19-21.91,9.071-44.43,11.64-66,21-15.81,6.861-30.29,17.864-44,27-7.55,5.033-16.23,6.913-24,12-15.28,10-29.54,42.235-19,63a16.97,16.97,0,0,1,6-2c3.2,4.68,9.19,7.715,13,12,27.05-5.357,50.69-13.743,73-23,8.61-3.573,21.6-5.523,26-13,5.66-9.625,11.54-30.98,7-46-1.26-4.156-1.44-9.458-3-13-1.43-3.246-4.61-4.194-6-8h4c2.36,1.829,6.17,1.39,9,3,8.77,4.982,19.41,15.017,24,24,2.77,5.431,1.82,20.088,7,23,0.97,0.251.38,0.784,1,0,5.92-4.088,9.01-25.979,5-36-1.75-4.379-5.57-9.078-8-13h5c6.03,4.434,13.75,5.952,18,12,4.48,6.378,5.11,17.1,13,20,1.99,1.337,6.51,1.1,10,1,10.52-17.283,19.19-45.68,24-68a14.134,14.134,0,0,1,4-1q5.505,2,11,4c7.29,3.923,17.37,10.979,23,17,3.28,0.117,7.18.236,9-1,4.71-2.055,7.86-7.215,12-10,6.07-4.083,12.64-6.04,19-10,6.86-4.272,13.37-10.427,20-15,5.76-3.974,15.05-6.227,16-15Zm-4088,7c3.87-.147,9.72-0.537,12,1,15.14,4.178,21.21,26.04,13,42-4.63,9.007-16.18,26.314-24,32-4.22,3.072-8.97,4.868-12,9-4.17,5.684-6.93,11.209-11,17-5.62,8-13.39,12.862-14,26,9.33,9.772,8.79,27.941,17,39,6.94,9.355,21.77,6.689,26,22,1.59,5.756-1,12.471-2,16q-1.005,6.5-2,13c-4.18,12.726-14.64,30.724-12,47,2.46,1.533,2.28,2.291,6,3,13.78-15.983,21.28-40.076,30-61,3.59-8.611,2.52-22.7,14-23,1.59,2.95,2.08,5.721,2,11-6.93,9.319-8.18,40.012-13,53-2.85,7.687-7.48,16.45-10,24l-3,18c-2.96,7.185-9.01,13.682-12,21q-1.005,5-2,10c-2.1,4.74-7.32,8.021-10,12-3.56,5.278-5.36,14.4-7,21q-0.495,6.5-1,13c-1.76,6.859-4.37,15.456-6,22-2.1,8.433.41,15.8-2,23-1.76,5.251-6.06,9.889-8,15-2.68,7.06,2.86,17.637-6,21-11.25,8.486-31.66-10.666-37-16-8.77-8.764-21.48-17.362-28-28-4.68-7.634-3.41-20.546-6-30-4.65-16.94-11.18-21.549-11-45,2.42-1.3,2.83-1.8,7-2,4.07,6.211,12.95,7.508,16,15q0.495,6,1,12c6.22,19.271,18.15,50.08,44,45,7.24-11.568,16.83-43.461,12-64-2.01-8.572-10.51-17.248-8-29,1.77-8.268,1.4-20.181,4-29,5.83-19.758,9.54-36.592,9-62a46.141,46.141,0,0,1-6-5c-21.09,4.518-32.84,21.246-56,22-1.22-2.281-1.64-2.251-2-6,1.14-1.514.88-4.25,2-6,4.74-7.38,26.1-22.358,34-28,6.16-4.4,16.34-6.344,18-15,1.51-7.859-12.32-28.973-16-34-4.15-5.674-9.56-4.3-16-8-3.17-1.82-5.36-5.579-8-8-0.15-3.872-.54-9.715,1-12,2.54-7.348,9.87-9.514,14-15,5.28-7.021,8.75-15.085,14-22,4.71-6.2,14.53-8.468,19-15,6.55-9.571,10.65-19.4,17-29,3-4.525,8.36-8.388,11-13,2.66-4.647.49-11.015,3-16C1413.73,143.552,1416.84,142.248,1418,141ZM6588,391c-13.9,1.417-50.28,10.344-56,19-4.39,6.65-2.33,17.686-5,26-1.57,4.876-8.46,25.55-5,31,3.11,8.963,15.06,8.885,19,17,3.64,6.119-6.33,21.933-7,27,0.54,1.094-10.52,19.464-13,23-12.36,17.63-24.34,33.638-25,63,2.73,1.708,2.5,2.536,7,3,3.68-3.177,33.26-7.712,40-9l12,1c31.63-8.437,24.35-41.676,31-74,0.8,1.021.35,0.274,1,2,6.77,7.664,5.78,20.658,9,32,4.72,16.612,13.23,36.269,27,44-3.63,11.648-4.68,16.65-21,16-5.31-3.306-38-.463-50,3l-19,3c-13.9,4.226-26.99,8.633-41,14-3.83,1.469-8.33,6.25-12,8-10.29,4.909-19.86,4.649-32,8-4.9,1.354-8.15,3.814-15,4-1.55-2.034-4.66-2.965-6-5-4.77-7.237-4.71-18.148-6-26,4.63-3.42,5.13-10.8,9-15,7.63-8.265,21.53-13.923,22-29-13.45-12.17-21.94-28.243-40-36-8.23-3.534-20.46-4.9-21-16,1.56-1.626,2.18-3.572,4-5,2.11-1.324,5.42-.769,8-2,4.05-1.937,9.14-6.123,13-8,5.05-2.454,9.68-1.718,15-4,9.57-4.1,19.51-13.541,30-17,11.2-3.691,30.83-10.343,30-22-0.33-4.613,3.12-9.126,4-12,0.78-2.546-.43-19.859-1-21-1.12-2.873-.17-1.842-3-3-1.07-.752-0.95-0.6-3-1-4.25,4.927-12.34,6.445-18,10-8.64,5.427-29.55,23.44-40,24-4.4-13.9-11.81-22.065-12-42,10.36-7.216,7.92-22.426,15-33,12.69-18.943,39-36.692,48-54-1.83-1.568-1.4-.882-2-4h2c1.74,1.322,1.61,1.727,3,1a10.435,10.435,0,0,0,4-6c-0.88-1.3-.89-2.467-1-5a15.662,15.662,0,0,0-5-1c-4.44,4.781-16.11,3.76-23,6-2.74.889-4.2,4.1-6,5l-9,1c-10.71,5.168-13.53,8.984-29,8v-1h-1c0.45-3.909-2.12-4.964-3-9q0.495-6.5,1-13c-0.7-2.773-2.25-6.716-3-10,5.76-3.435,23.28-16.046,27-21,3.49-4.647,6.65-10.318,11-14,5.47-4.627,12.01-11.547,18-15,2.95-1.7,5.58-1,8-3,1.61-1.327,1.52-4.535,3-6,6.65-6.58,16.12-10.708,24-16,4.22-2.831,7.76-8.319,12-11q4.995-1.5,10-3c1.33-1.667,2.67-3.333,4-5,6.01-3.735,12.39-5.861,18-10,1.67-2,3.33-4,5-6,5.01,0.455,6.13,1.091,9-3,1.9-2.545,3.84-10.231,3-12-1.48-4.434-4.04-4.283-10-4-4.54,2.811-8.75,1.137-15,3-2.81.838-5.82,4.061-8,5-2.71,1.164-10.92.143-16,2-2.64.965-6.49,3.942-9,5-11.18,4.711-23.47,5.641-33,12-2.02,1.346-3.76,4.807-6,6-4.75,2.526-9.69,2.018-15,4a178.323,178.323,0,0,0-21,10c-2.26,1.207-4.74,4.794-7,6-10.28,5.485-27.32,11.6-30,24h-3c-4.33,5.675-11.69,9.254-16,15-5.24,6.986-8.57,15.03-14,22-5.06,6.491-12.33,12-18,18-1.75-.631-0.97-0.193-2-1-6.56-1.867-19.94-20.433-22-27-1.17-3.741,1.11-15.876,0-22,4.97-3.183,15.66-18.911,17-25-0.33-1-.67-2-1-3a418.343,418.343,0,0,1,23-46c4.02-6.985,7.16-23.274,16-25a6.107,6.107,0,0,0,2,2c-0.9,6.062,1.63,16.442-1,25a145.457,145.457,0,0,0-6,41c2.73,1.708,2.5,2.536,7,3,4.22-2.79,8.56-2,14-4,9.41-3.47,20.74-11.232,30-15,6.05-2.462,11.36-1.242,17-4,24.86-12.162,55.7-20.746,81-33,4.15-2.008,6.29,1.454,11,0,1.02-.316,3.37-2.741,4-3l11-1c4.06-1.093,10.8-3.808,14-5,4.06-1.512,4.73,1.842,9,0,2.27-.977,5.99-4.319,9-5,5.94-1.344,16.44-.323,24-3,13.06-4.624,18.11-11.069,32-14,9.81,12.869,33.33,10.525,36,31-1.95,2.18-1.89,6.954-4,9-3.19,3.092-6.52,1.838-9,6-11.88-4.214-38.39,6.783-48,10-8.73,2.923-16.37,5.981-24,8-7.83,2.07-13.66.305-20,3-3.4,1.446-7.09,5.629-10,7l-9,1c-9.15,3.551-22.5,15.452-31,21h-5c-4.66,2.266-9.2,8.769-14,11l-3-1c-4.48,1.914-9.46,5.875-13,9-4.51,3.984-10.26,6.188-15,10-5.86,4.713-10.48,11.828-16,17-2.2,2.064-10.09,8.465-8,11,1.57,1.829.88,1.395,4,2,7.53-5.775,20.81-5.042,30-9,7.2-3.1,15.15-9.6,23-12h6c2.35-.793,7.58-4.185,10-5l4,1c2.52-.708,5.29-4.15,8-5l9-1c7.84-3.83,15.16-12.368,25-14,2.9-.481,27.54,13,29,15,1.7,2.33,1.77,4.112,2,8-2.3,2.891-2.11,5.469-6,7-4.28,3.4-10.3,3.928-15,7-4.59,3-9.5,7.433-14,11-4.01,3.178-6.01,8.65-9,13-2.17,3.166-6.97,9.524-10,12-1.31,1.069-3.01.689-4,2-2.49,3.284-3.15,7.181-6,10a33.779,33.779,0,0,0,1,8l15,9c12.76,5.561,25.08,8.745,36,16,5.42,3.6,9.68,9.373,15,13A15.649,15.649,0,0,0,6588,391ZM4308,327l6-1c1.75-3.161,3.24-3.544,4-8-3.64-.564-4.84-2.025-7-1-10.01,2.509-9.06,10.787-16,15-4.46,2.709-9.45,2.6-13,6-1.75-.631-0.97-0.193-2-1-28.1-21.015-6.97-50.65,2-75,2.89-7.848,1.87-14.012,4-23,1.34-5.651,5.24-21.38,3-26-0.92-3.287-1.86-4.819-5-6-1.79-1.65-2.51-1.746-6-2-1.88,1.742-19.67,12.718-22,13-0.25-13.413,13.63-32.5,23-36,17.68-6.611,43.6.83,45,17,5.09,7.792-4.74,23.54-7,29q-1.995,8.5-4,17c-2.44,7.23-7.1,14.393-10,21-2.93,6.676-3.4,12.851-7,19-4.31,7.367-10.98,11.282-14,22h4c9.32-9.684,47.46-15.895,57-2,5.84,8.509-.82,13.715,1,22,1.9,8.609,9.51,12.363,10,23-3.02,3.94-14.46,27.693-15,33,2.4,2.416,3.16,7.084,6,9,7.07,4.77,19.73,2.46,21,13-9.87,5.5-22.09,11.54-29,20-2.53,3.093-3.31,7.161-6,10a33.779,33.779,0,0,0,1,8c3.45,0.86,4.38,1.758,9,2,8.34-11.35,59.24-9.109,62,5-2.52,1.509-2.88,3.278-5,5-5.9,3.819-14.85,2.436-22,5-4.3,1.542-11.27,4.666-16,6-7.35,2.076-14.54.4-20,4-11.16,7.357-8.34,33.2-23,34-6.7-6.642-16.44-10.218-23-17-12.35.109-17.14,6.177-29,4-1.94-3.215-3.49-4-4-9-3.47-7.375,5.19-17.054,9-21,11.48-11.878,25.13-19.294,27-41-3.32-3.354-5.02-8.312-10-10-12.53-4.248-21.39,4.836-26-8-5.96-6.607-2.86-19.527-2-28,7.05-4.7,11.11-12.154,17-18,3.03-3.009,7.89-4.059,11-7,2.94-2.781,2.23-7.927,6-10,3.71-3.7,9.08-2.868,15-2v-1C4306.87,333.985,4307.79,331.018,4308,327ZM2124,192c-14.41,15.451-32.07,27.111-47,42-5.08,5.069-13.36,8.66-14,18,2.43,1.236,8,3,10,5,4.07,4.064.15,7.888,8,9,0.33-1,.67-2,1-3,0.75-1.073.6-.946,1-3-3.94-2.046-8.29-3.39-9-9,4.17-1.161,4.24-3.157,7-5,11.2-7.486,21.78-10.965,38-11,1.57-2.067,4.6-2.955,6-5,4.58-6.715,7.82-27.368,9-37C2131.55,192.15,2127.82,191.961,2124,192Zm3734,16h-6c-1.74-3.474-2.85-4.362-3-10,1.62-1.35,1.12-.64,2-3h-4c-20.13,13.316-28.11-4.135-27,35,2.08,3.207,1.31,12.977,1,18-0.75,12.033-5.37,23.78-6,37a14.134,14.134,0,0,0,4,1c7.85-6.1,26.71-5.954,33-12,5.62-5.4,1.35-13.347,3-21a68.373,68.373,0,0,0,2-12c0.14-3.631-3.25-8.5-2-14C5856.3,221.306,5858.01,215.666,5858,208ZM240,206c0.54,4.789.8,11.841-1,17h2v-1c3.017-2.128,5.285-6.694,6-11C244.282,209.193,243.456,207.223,240,206Zm3109,15c12.47-.16,17.44,6.373,26,10,5.59,2.369,12.08,1.956,17,5,3.21,1.987,4.96,5.782,8,8,3.01,27.7-18.03,38.141-34,50-3.19,2.366-5.69,6.667-9,9-8.07,5.685-16.86,9.282-25,15-5.65,3.972-10.73,10.766-17,14l-6,1c-8.53,3.663-15.56,10.393-23,15-12.05,7.458-25.91,11.424-37,19-12.42,8.491-26.81,26.329-32,42-1.47,4.429-5.86,14.8-4,19,1.12,2.873.17,1.842,3,3,5.53,3.137,9.61-2.8,14-4,5.94-1.621,41.71,1.914,45,4,8.98,3.061,10.96,11.766,15,20,16.53,33.684,6.85,81.464-2,119-5.41,22.935,11.51,64.574-10,72-9.43,7.274-19.96-5.863-26-9l-24-8c-11.99-5.318-22.53-13.51-34-20-4.85-2.742-11.25-13.126-17-11-5.67,1.326-6.34,3.713-6,11,7.63,10.489-.9,35.349-9,38-1.29.877-2.47,0.894-5,1-13.27-13.122-29.19-27.843-34-49-1.28-5.636,2.82-12.61,4-16,5.65-16.211,7.83-34.609,15-49,5.93-11.894,7.41-26.212,13-39,7.76-17.764,19.81-33.692,30-49,3.56-5.343,4.56-11.44,8-17,7.22-11.656,16.09-22.433,24-34,2.91-4.252,8.88-6.932,12-11a125.746,125.746,0,0,1,23-23c5.43-4.094,11.64-6.844,13-15-13.34-8.143-24.79-17.907-30-34q-0.495-12.5-1-25c-2.67-8.029-10.59-8.919-11-20,15.55-8.541,34.91,13.318,51,9,12.04-3.23,19.54-16.646,29-23C3318.06,238.887,3335.47,232.493,3349,221Zm856,0c10.4,0.115,35.46,6.151,40,12,1.52,1.9,1.79,3.59,2,7a213.205,213.205,0,0,0-23,26q-7.005,6.5-14,13c-9.37,12.4-20.47,24.115-29,37h6c1.02-.8.27-0.355,2-1v2c-3.67,2.9-5.36,8.2-9,11-5.13,3.951-12.12,7.9-16,13-4.31,5.68-6.68,15.35-16,16-0.97.251-.38,0.784-1,0-2.69-1.865-2.86-2.377-3-7,2.34-2.709,2.03-6.675,4-10,4.5-7.588,9.04-16.033,14-24,15.2-24.4,36.98-47.913,45-79C4208.65,230.613,4205.62,225.7,4205,221Zm-405,22h7c2.18-4.923,3.97-8.234,3-14h-2v1C3801.86,231.673,3799.69,234.6,3800,243Zm809-13c13.49-.3,31.1,11.153,27,27-8.43,32.592-17.96,66.468-27,98-3.67,12.807-3.93,26.722-7,40v28c0,18.064-2.92,40.773,1,57,3.83,15.841,8.84,34.9,5,52-6.57,4.453-8.23,8.977-20,9-2.17-1.63-5.51-1.436-8-3-6.34-3.982-20.48-14.639-24-21-4.82-8.7-3.04-26.416-1-37-0.33-3.333-.67-6.667-1-10V432c-1.32-7.553,1.21-21.17,3-29V380c6.64-28.583,13.42-59.424,22-86,6.6-20.454,8.64-41.447,20-57C4601.36,233.767,4605.89,232.539,4609,230ZM287,240c-2.35,2.079-7.2,3.631-10,5l-3,14h2c1.18-.8,1.681-0.773,4-1,3.633-5.477,9.762-8.273,11-16Zm2993,90h4c3.43-6.812,9.87-9.262,14-15,2.96-4.11,4.08-8.821,7-13,4.33-6.2,10.86-11.418,15-18,2.25-3.577,2.64-7.545,5-11,4.86-7.123,13.33-14.176,15-24-2.92-3.164-1.66-4.7-8-5-6.52,4.055-16.88,2.016-23,6-4.63,3.015-23.93,27.485-26,33-4.28,11.4,4.26,22.681,1,35C3282.93,322.037,3280.47,324.622,3280,330Zm-740-78c-4.7,5.749-13.9,7.589-20,12-4.84,3.5-7.34,10.424-12,14-9.6,7.367-22.43,12.743-29,23-5.35,8.351-4.48,18.888-6,29-0.34,2.293,1.76,3.721,1,7-0.39,1.67-2.36,3.071-2,6,0.67,5.379,4.58,14.168,3,20-0.89,3.3-3.45,13.342-3,18,0.58,5.954,4.4,16.1,2,24-0.29.948-2.65,3.852-3,5v6l-3,2c0.33,2.333.67,4.667,1,7q-0.495,14.5-1,29h2c2.51-1.569,5.64-.866,9-2,5.31-1.79,12.09-5.99,17-8l10-1c2.88-.921,5.57-4.09,8-5l10-1c2.35-.858,4.78-4.106,7-5,6.08-2.45,17.82-1.819,21-7-11.37-3.6-33.43-14.927-35-28,7.16-8.614,8.08-19.459,14-30,1.68-3,5.91-4.485,8-7,2.2-2.644,2.81-6.369,5-9-2.68-12.939-13.23-23.391-9-41C2536.79,302.551,2545.82,261.359,2540,252Zm521,1c-11.46,10.666-30.91,15.743-45,24-1.33,1.666-2.67,3.334-4,5-5.04,3.61-9.95,5.475-15,9q-7.995,9-16,18-4.995,4.5-10,9c-5.51,7.994-8.41,17.191-14,25-6.19,8.645-18.59,16.152-20,29,3.33,2.23,3.19,3.688,9,4,5.58-3.762,15.39-2.278,22-5,10.49-4.317,22.43-10.057,32-15,7.64-3.944,15.98-4.629,23-9,3.75-2.333,7.22-6.652,11-9,6.84-4.243,14.65-5.459,19-12,2.49-3.74,7.83-24.04,9-29V286c0.86-3.548,3.83-8.342,5-11q-1.005-10.5-2-21Zm-948,18c0.83-6.114,2.45-7.163,2-13-5.45.639-15.33,5.351-17,10h1C2102.16,270.118,2108.39,270.842,2113,271Zm2128-6h2a228.54,228.54,0,0,1-6,56q-0.495,11.5-1,23c-1.6,6.825-3.38,15.975-5,23q-0.495,17.5-1,35c-5.09,22.809-2.13,55.007-6,74-4.24,20.844,5.1,61.446-18,62-7.21-9.1-24.86-21.425-28-33-2.27-8.369,3.26-18.221,5-24,2.13-7.061.99-13.462,3-21,2.39-8.982,5.46-20.445,8-29,5.06-17.038-.61-38.321,3-55,1.42-6.566,4.87-34.749,3-42-1.34-5.183-4.56-6.259-5-13,4.12-2.686,6.58-5.153,13-6,2.46,2.417,6.97,3.189,9,6,0.67,2,1.33,4,2,6h3v-1h1c0.68-12.85,6.68-23.2,10-33C4236.3,283.262,4236.49,273,4241,265Zm-2196,5c-1.07.752-.95,0.6-3,1-12.32,15.872-32.94,30.945-27,59h5l12-11c6.06-8.336,10.58-18.446,15-28,1.91-4.13,6.04-14.517,4-19C2049.53,269.458,2048.88,269.994,2045,270Zm-121,2c-8.63,13.691-14.92,23.4-15,47l3,1c1.69,1.142,4.9,1.066,8,1,6.76-11.92,11.57-27.717,12-46C1929.08,273.162,1929.1,272.261,1924,272Zm3435,38c0.78-5.078,3.49-6.322,5-10,1.79-4.362,2.7-17.366,3-22l-3-1c-1.07-.752-0.95-0.6-3-1-5.58,8.916-12.27,17.184-13,31,2.54,1.372,3.5,1.917,8,2C5357.07,309.752,5356.95,309.6,5359,310Zm-35-32c-1.33,7.618-7.42,12.156-9,20a2.909,2.909,0,0,1,1,1c1.75-.631.97-0.193,2-1C5320.75,295.1,5325.89,281.369,5324,278Zm-1520,1c-5.21,4.819-11.52,6.249-12,16,5.4,5.822,6.58,11.834,18,12,1.75-1.284,4.22-1.683,7-2q4.005-4.5,8-9v-6q-2.505-3.5-5-7c-2.33-1.736-4.99-2.058-7-4C3809.91,279.281,3808.74,279.08,3804,279Zm-1728,4c-10.33,23.591-25.26,50.815-48,62v1h1v1c2.94-1.3,6.28-4.028,9-5,13.77-4.921,34.66-3.085,45-11,5.05-3.865,4.07-10.657,6-18,1.1-4.2,5.5-10.637,4-14C2091.26,293.629,2082.39,283.708,2076,283Zm2059,5c0.49,22.03-3.57,30.8-9,45-3.51,9.179-1.59,20.042-5,30-0.94,2.735-4.13,6.852-5,10v16c0,15.3,1.31,30.606-2,44a494.56,494.56,0,0,1-23,71q-1.995,9-4,18c-6.39,14.643-13.87,30.7-23,43-10.1,13.606-30.14,26.771-45,36-12.78,7.933-25.29,19.487-45,20v-1h1c2.04-2.707,5.99-3.426,8-6,20.44-26.175,50.25-46.581,64-79,6.11-14.413,8.71-28.029,15-43,5.72-13.618,13.28-29.56,18-44,3.94-12.063,3.21-23.582,7-36,12.87-42.149,26.9-86.787,45-124h3Zm-2502,4a41.569,41.569,0,0,0-3,16c1.62,1.254,2.01,2.1,3,4a117.325,117.325,0,0,0,14,1v-2C1641.61,305.117,1639.81,296.5,1633,292Zm475,2c-4.9.2-7.44,1.513-9,5-0.34,3.11,4.79,11.542,7,16h1v-5C2108.96,307.019,2108.13,298.721,2108,294ZM5824,397h5c4.08-9.068,6.95-16.559,7-30-7.73-3.075-18.24-3.883-21-12-0.8-1.18-.77-1.681-1-4,2.92-1.838,2.9-2.739,8-3,3.53-2.111,11.28.048,15-2,7.6-4.185,10.3-22.462,11-33-4.11-1.4-11.34-1.074-17-1-4.53-2.932-15.1-2.118-22-2-3.98,7.077-4.53,17.567-8,26-10.17,24.736-19.61,61.5-20,95h2c5.75,3.364,32.75-12.726,34-20-3.99-3.426-1.13-5.9-3-12-2.87-9.375-8.52-19.7-10-30,2.09-1.121,1.83-1.434,5-2,1.02,0.8.27,0.355,2,1C5816.14,376.258,5823.25,384.582,5824,397ZM274,313c-2.545,3.417-8.439,17.87-6,22,1.567,1.243.51,0.642,2,0,5.723-1.976,7.191-7.2,11-11,0.072-4.166-.228-6.829-2-9-1.021-.8-0.274-0.355-2-1C275.927,313.248,276.054,313.4,274,313Zm5033,0c-3.14,3.383-10.34,11.862-12,16,2.28,1.225,2.25,1.638,6,2,1.07,0.752.95,0.6,3,1,2.58-5.7,5.59-10.33,6-18Zm-2713,4c-3.09,2.463-6.11,1.9-10,4-8.57,4.629-32.79,36.926-36,47v14c3.19,3.423,3.96,7.249,9,9,2.38,1.909,5.49,2.056,10,2,3.37-3.279,8.23-5.136,11-9,6.65-9.288,20.74-51.325,18-66C2595.33,317.667,2594.67,317.333,2594,317Zm570,5c3.1,1.224,2.26.375,3,4-2.02,2.854-.9,5.685-2,10-8.77,34.434,27.39,52.276,18,77-4.16,2.663-6.45,5.427-13,6-4.82-3.011-11.62-1.962-16-5-3.99-2.766-8.53-11.989-10-17-0.33-3-.67-6-1-9-1.35-2.492-5-3.62-6-7-1.65-5.554-1.1-11.671-2-16-3.24-1.817-29.23-16.6-30-18,2.67-.924,6.93-1.051,11-1,1.98,1.238,4.98.131,8,1,7.07,2.033,10.18,6.69,20,7,3.6-5.609,9.91-9.812,13-16C3160.35,331.288,3159.68,326.908,3164,322Zm2152,6c3.15,0.088,5.21.475,6,0a6.155,6.155,0,0,0,2-2c-2.73-1.708-2.5-2.536-7-3v2C5316.25,326.073,5316.4,325.946,5316,328Zm-3185,8c-2.08.372-1.92,0.242-3,1-5.35,1.509-11.94,6.042-13,12a14.134,14.134,0,0,0,4,1c2.68-4.016,7.81-7.527,12-10v-4Zm1485,78c2.3,14.744.79,28.305-1,42a8.859,8.859,0,0,1,3,3h1v-1c5.88-4.438,3.19-11.034,5-20,0.96-4.722-.98-19.217,1-28,2.93-12.977,3.03-53.573,0-69a14.134,14.134,0,0,0-4-1c-4.32,3.557-6.74,1.564-12,4-11.19,5.185-32.24,35.126-33,51A71.1,71.1,0,0,0,3616,414Zm-955-70c-9.49.545-17.38,5.165-25,6-3.95.433-12.92-1.355-16-1-11.45,18.426-20.68,40.815-29,62h5c2.87-2.43,5.8-1.415,10-3,7.72-2.912,15.97-8.07,24-11l8-1c4.18-2.626-.07-8.047,1-13,1.31-6.06,4.31-8.819,7-13h2c1.47,2.271,2.1,3.009,5,4,1.07-.752.95-0.6,3-1C2658.68,364.411,2660.98,357.161,2661,344Zm1633,16c-6.93.692-20.97,4.826-23,11-0.75,1.073-.6.946-1,3,4.57,3.081,5.51,5.049,14,5C4288.51,372.631,4293.78,371.3,4294,360Zm1795,3c15.75-.556,31.76,3.468,32,19-7.08,7.731-10.4,17.721-16,27-1.64,2.72-5.81,4.693-8,7-5.56,5.853-9.5,14.179-16,19-6.74,5-14.2,8.122-21,13-7.89,5.659-14.3,14.449-22,20-5.29,3.818-26.28,12.238-33,14v-2c4.86-1.544,14.4-9,15-15,3.27-6.94-8.19-12.478-6-22,4.77-20.7,10.46-37.012,15-58,9.86-5.334,12.65,1.056,22-2,9.14-2.987,15.26-13.727,24-18C6078.3,363.386,6084.91,365.747,6089,363Zm413,3h-3c-10.07,15.22-31.47,24.9-37,44h5c11.44-7.593,32.39-3.635,34-21C6504.75,383.439,6502.2,373.983,6502,366Zm-1711,2c-3.3,6.842-2.16,19.562,2,25,1.07,0.752.95,0.6,3,1,6.22-5.142,14.45-3.888,15-15-4.01-2.631-8.69-7.478-12-11h-8Zm523,45c11.8-.33,22.14,7.97,33,4,6.38-12.9,5.71-38.9-5-46-1.91-1.48-3.32-1.85-5-1-4.8,1.655-9.5,9.177-11,14,3.96,2.222,5.83,3.824,7,9-6.65-1.079-15.49,1.648-16,10C5315.16,405.32,5314.41,409.327,5314,413Zm764-35c-2.48,3.025-5.68,2.721-9,5-1.42.972-10.23,11.541-11,13-3.63,6.911,2.37,10.352,0,17-3.45,9.665-9,13.991-9,29a2.909,2.909,0,0,1,1,1,2.909,2.909,0,0,0,1-1c15.54-8.19,21.62-28.4,34-40C6085.13,397.486,6080.23,379.271,6078,378Zm550,8c23.32-.47,60.38,9.631,61,30,3.8,5.375.88,15.361-2,19-1.89,2.15-4.09,4.865-7,6-5.75,3.545-15.26-2.8-20-4l-16,1a14.159,14.159,0,0,1-1-4c5.41-3.367,9.41-18.565,4-26-1.54-5.288-8.72-13.456-13-16-3.98-2.363-8.71-.9-11-5C6625.53,386.926,6626.72,386.88,6628,386Zm-5520,6c-13.9,10.615-47.53,17.529-51,37,5.89,3.736,15.7,9.752,19,16,6.67,12.64-1.58,31.833-1,44,3.99,2.758,15.08,12.139,22,8,7.84-8.989,7.58-24.61,11-38,6.2-24.307,13.4-35.252,8-62C1113.03,395.05,1112.06,393.157,1108,392Zm1576,5c-2.64,2.4-18.45,13.322-14,18,0.95,3.987,2.26,5.757,6,7,1.91,1.884,6.18,2.98,9,1,5.8-1.88,18.63-14.712,19-22-0.8-1.021-.35-0.274-1-2h-2C2696.58,396.146,2687.71,397.959,2684,397Zm-1637,6c2.72-.007,4.6.039,6,1C1050.28,404.007,1048.4,403.961,1047,403Zm870,40c16.3-.069,43.59-6.173,55-12,21.49-10.977,38.33-32.7,70-25a29.125,29.125,0,0,0,4,6,14.159,14.159,0,0,0-1,4c-15.17,11.449-47.77,37.468-40,70,2.13,8.932,5.56,18.373,8,26,2.3,7.211-.76,16.393,4,23,1.55,1.049,4.09,1.031,7,1,18.81-18.739,51.42-13.832,75-3v2c-6.1,1.334-10.85,4.527-17,6l-17,1c-5.15,1.513-9.29,6.236-14,8-7.37,2.757-19.81,4.639-28,5-1.44,2.67-1.99,4.221-2,9,3.58,3.755,4.5,10.174,7,15,5.36,10.369,17.4,33.251,12,53-3.86,14.091-25.71,41.927-38,47-15.26,6.3-21.99-3.32-31-8-11.64-6.044-25.01-8.67-32-19l-9-22c-4.89-7.262-11.03-6.624-11-20,2.14-2.715,2.11-6.925,4-10,4.79-7.773,15.55-17.759,23-23,16.68-11.736,37.69-18.019,52-32-0.15-19.409-6-38.679-10-55-3.98-16.254,4.84-30.706,3-42a16.537,16.537,0,0,0-8-2c-4.9,4.626-11.95,5.32-18,9-9.52,5.794-17.24,15.743-31,17C1925.69,464.929,1918.09,457.163,1917,443Zm1658-9c-7.43,7.114-17.05,11.383-21,22-2.99,8.023-1.58,15.373-4,24-1.21,4.325-3.89,11.357-5,16v12c4.91,12.5,26.02,40.054,37,46,4.76,2.58,9.99,1.855,15,4,6.11,2.617,7.13,9.046,15,10,3.61-3.333,8.41-4.61,11-9,5.72-9.7,6.06-50.009,2-62h-2c-5.51,9.731-13.54,18.094-21,26h-5c-6.91-7.072-14.43-12.454-18-23-2.2-6.49,1.47-15.069,2-19,1.86-13.762,2.73-32.649,0-47h-6Zm-2533,5c-5.16,3.964-11.67,5.277-17,9-3.91,2.728-5.71,8.563-9,12-0.3,7.1-2.62,15.825,1,21,2.63,8.272,13.53,11.759,24,12,6.15-14.888,12.45-36.923,9-53Zm2176,2-9,7c-3.47,5.072-2,11.041-4,18-1.78,6.174-4.57,12.716-7,19-1.65,4.26-6.98,12.652-5,17,1.07,2.8,2.75,5.691,7,5,4.57-.743,10.68-4.875,16-6,12.38-2.618,22.97,5.84,35,6,2.17-2.694,5.65-4.49,7-8,6.33-16.507-9.98-50.123-19-55C3233.46,441,3225.52,441.131,3218,441Zm2135,3c-3.64,4.707-8.67,7.836-10,15,1.39,1.275,4.29,4.124,3,5-3.5,7.4-6.53,12.743-14,16-12.13,5.286-21.09-5.344-21,14,5.29,5.04,2.81,6.3,6,12,3.92,7.022,27.95,14.7,39,16v-1h1c1.27-22.692,4.91-42.654-1-63C5354.19,451.758,5356.99,447.565,5353,444Zm-45,21c0.13-9.052,1.71-12.1,4-19a2.909,2.909,0,0,1-1-1,2.909,2.909,0,0,0-1,1c-3.42,1.8-4.61,3-5,8-1.93,2.787-.69,8.018,0,11h3ZM994,472c-2.7,5.159-8,6.59-10,12h1c1.838,1.238,5.7,1.089,9,1,1.021-.8.274-0.355,2-1,0.924-2.667,1.051-6.931,1-11Zm4858,18c-3.37,6.546-9.88,8.556-14,14-8.82,11.64-18.21,22.124-27,34-4.76,6.432-11.24,10.24-14,19,6.99,2.06,23.53,19.758,30,16,7.79-6.581,8.55-19.918,12-31,4.97-15.94,10.68-32.8,15-51C5853.33,490.667,5852.67,490.333,5852,490Zm621,4c-1.31,1.017-3.5.926-5,2-0.67,1.333-1.33,2.667-2,4l-13,1c-7.37,2.816-15.77,9.6-23,13-6.1,2.87-14.89,5.326-16,13-1.66,1.493-1.02.725-1,2,4.81,9.081,15.63,9.475,24,15,8.85,5.838,13.93,17.147,28,18,4-6.231,10.26-12.682,13-20,1.72-4.584-1.03-8.1,0-12,0.57-2.129,4.23-6.539,5-9,2.36-7.549.44-15.7,1-21-1.68-1.271-2.32-2.729-4-4C6478.11,494.479,6476.41,494.211,6473,494ZM2638,589c-0.01-2.72.04-4.6,1-6,1.78-5.169,5.37-6.251,8-10,3.01-4.3,4-9,7-13,2.53-3.371,7.58-5.493,9-10,2.3-7.326-3-11.705-5-15-6.52-10.756-13.76-22.974-18-35h22c4.71,2.741,14.74.007,20,2,5.91,2.239,10.15,7.817,15,11q7.995,3,16,6c4.88,2.923,8.51,8.666,13,12,13.85,10.292,17.65,21.872,13,43-6.63,2.793-12.82,8.852-19,11-12.5,4.34-25.5-4.025-38-1A197.423,197.423,0,0,1,2638,589ZM794,504l-17,27c-2.893,6.676-2.376,15.971-6,22-5.389,8.964-13.526,15.085-14,29,7.98,6.143,18.885,20.615,31,21,3.144-3.046,7.287-4.478,9-9q1-10,2-20c3.459-15.492,5.927-51.794,3-68C799.458,504.628,798.5,504.083,794,504Zm5377,0c31.36-.747,53.26,8.876,52,37-13.39,8.59-24.42,22.619-38,31-6.89,4.253-15.22,4.689-23,8-5.59,2.381-10.79,7.594-16,10-9.36,4.326-17.94,6.291-27,11-7.85,4.077-24.17,14.48-33,16v-2c3.57-3.377,8.61-6.443,12-10,1.19-1.25.67-3.892,2-5,5.67-4.721,12.67-7.035,17-13,7.3-10.062,9.77-21.646,15-34,2.05-4.847,5.95-7.856,7-14-0.8-1.021-.35-0.274-1-2-9.66-5.493-18.72-12.663-33-13-5,6.771-13.2,11.869-18,19-7.17,10.655-4.87,29.045-23,29-12.68-10.509-24.57-15.957-30-34h4c4,3.758,16.77,5.959,24,3,16.32-6.682,27.82-20.05,47-26h14c9.35-2.2,19.84-5.3,29-8C6158.01,505.229,6166.37,507.137,6171,504ZM2515,520c-0.2,2.328-.19,2.826-1,4-1.43,4.494-23.19,31.153-27,34-2.33,1.333-4.67,2.667-7,4-5.34,6.211-14.06,13.171-18,20-1.41,2.455-.74,4.667-2,7a185.65,185.65,0,0,1-11,17c-4.75,6.826-14.04,10.475-19,17-7.66,10.07-15.46,25.186-29,29l-14-2c-5.08-7.377-17.73-24.308-20-33-2.08-7.968,3.4-16.13,5-21,3.76-11.448,3.72-22.065,9-32,3.73-7.023,11.41-13.432,16-20,5.04-7.205,7.02-16.835,18-18,2.34-1.68,11.66-1.655,14,0,5.41,1.853,6.53,6.342,10,10,0.32,6.61,1.45,12.061-2,17-3.07,4.392-7.53,4.178-9,11,2.42,1.3,2.83,1.8,7,2,7.8-5.741,17.87-6.717,27-11,17.71-8.3,36.35-21.226,49-35h4Zm-1500,2c-2.91,8.246-6.76,25.685-7,37h2c5.45-10.233,17.56-15.236,19-30C1024.37,526.649,1020.76,523.721,1015,522Zm43,4c-3.66,9.067-10.65,12.562-15,20-3.41,5.825-2.46,13.486-6,19-4.53,7.058-11.99,12.287-18,18-4.09,3.891-6.93,9.105-11,13,0,17.759,23.82,39.388,44,39,2.66-3.5,7.4-5.5,10-9,6.62-8.92,13.76-22.806,17-34,2.17-7.5,2.47-14.032,4-21V556c1.71-7.154,5.38-11.87,4-20-4.39-.865-3.35-2.265-6-4C1075.1,528.142,1067.07,526.331,1058,526Zm-803,2c-0.86.649-3.144,1.338-4,2-13.543,4.3-20.146,21.181-22,37,3.582,4.053,2.686,8.27,10,9,7.674-12.641,16.726-28.939,19-46Zm2946,0c-15.79,11.956-29.34,7.291-27,37,4.96,3.933,9.37,12.073,16,14,10.44,3.036,9.27-7.1,11-14,2.79-11.112,9.2-19.974,10-33-1.83-1.285-1.71-1.968-4-3C3205.58,528.039,3203.73,528.024,3201,528Zm46,0c-4.2,8.658-8.72,18.589-14,27-3.57,5.687-9.06,9.59-10,18a48.928,48.928,0,0,1,6,6c7.5,0.632,14.74.625,21-1,2.29-3.516,4.43-4.425,5-10,3.71-5.585,1.05-34.758-2-40h-6Zm2670,6h3v2c4.17,5.549,5.34,18.788,7,26l6,5c23.13,0.336,35.88-22.295,56-28v2c-7.47,2.627-12.22,11.379-17,17-11.94,14.048-32.32,23.847-30,49-4.47,3.578-4.52,6.822-13,7-2.61,1.855-7.87.69-10-1-8.39-2.553-9.41-8.369-12-17-0.86-2.872-3.31-7.325-4-10C5899.89,573.95,5913.31,541.754,5917,534ZM4396,567c-23.34-1.572-34.1-2.531-50,8-3.07,2.031-7.56,2.41-10,5-9.25,9.822-18.8,34.03-33,38-10.87,3.04-18.02-3.663-23-7-13.92-9.32-39.23-43.7-64-27-21.9,14.765-35.16,37.015-46,63-6.08,14.574-.63,32.458-21,33-10.38-8.231-23.5-15.2-28-29-3.42-10.493.88-26.635,3-36,3.2-14.124-.58-37.335-1-48h2c10.31-6.807,28.62,13.674,33,18,0.14,12.574,4.15,24.575,0,34h3c5.15-8.318,13.32-12.23,21-18l15-16c7.39-5.344,19.61-10.524,29-13h8c7.43-2.282,21.85-6.994,34-4,7.77,1.915,17.71,4.092,24,8,4.81,2.985,10.21,11.557,20,9,14.25-3.722,23.01-15.949,35-22a103.824,103.824,0,0,1,19-7c7.99-2.056,14.25.31,21-2,5.82-1.993,11.43-6.766,17-9,6.07-2.436,12.56-1.346,19-1,22.86,1.226,45.53.751,46,24-3.09,3.171-4.28,8.483-8,11-5.22,3.536-11.82,3.4-18,6-7.88,3.322-17.49,7.406-25,12-6.33,3.873-13.83,8.422-20,13-4.3,3.19-7.67,8.864-12,12-16.3,11.8-33.89,20.088-50,32-5.87,4.336-9.76,11.041-15,16-6.07,5.754-15.07,8.144-21,14-6.28,6.2-10.83,15.86-21,18v-2c12.15-8.087,22.24-23.363,31-35,6.36-8.453,16.63-14.733,23-23,8.37-10.853,18.09-19.011,27-29,1.63-1.832,2.21-4.352,4-6,5.49-5.053,11.77-9.782,16-16,2.68-3.943,3.29-8.078,6-12C4389.16,574.423,4394.57,573.708,4396,567ZM440,552c-5.245,3.084-15.251-.889-22,1-3.287.92-7.628,3.974-11,5-15.378,4.678-28.561,4.229-40,12l-8,9c-1.358,15.136,3.433,35.691,10,45l8,6c27.973,0.482,38.3-19.927,53-33,5.372-4.777,12.127-7.757,16-14,3.644-5.874,16.024-25.827,5-30C450.091,552.677,442.988,552.318,440,552Zm1561,13c-6.84,8.322-20.68,11.127-30,17-12.17,7.667-21.05,18.165-31,28-0.33,18.33,12.14,32.8,25,38l16,2c6.53,1.513,13.04,1.894,19-2,6.22-4.061,21.87-20.586,24-28,5.12-17.833-6.41-27.711-11-36-3.38-6.108-4.76-13.3-8-19h-4Zm3385,15a184.493,184.493,0,0,1,37,2c10.59,1.523,21.2-2.62,32,1,8.32,2.789,15.73,9.045,23,13,6.91,3.757,14.2,5.346,20,10q2.505,4,5,8c0.5,13.442-3.1,22.561-14,27-17.35,7.067-28.9-8.5-44-3-9.08,3.307-17.35,10.7-26,14l-19,4c-10.33,4.128-18.56,13.024-31,16v-2c15.33-9.965,29.8-23.785,41-38,5.84-7.412,15.53-12.235,16-25-9.16-5.627-18.83-13.008-28-19C5393.63,585.143,5387.61,585.694,5386,580ZM200,585c-1.073.752-.946,0.6-3,1-8.718,13.187-33.965,30.68-36,48,1.949,1.928,2.245,3.7,5,5,2.369,1.576,6.358.25,10,1,20.295,4.18,32.72-13.442,37-32,1.574-6.826-3.577-12.925-5-18C205.029,588.05,204.061,586.157,200,585Z"/>
</svg>
