<?xml version="1.0" encoding="UTF-8"?>
<svg id="_图层_2" data-name="图层 2" xmlns="http://www.w3.org/2000/svg" viewBox="0 0 77.82 77.82">
  <defs>
    <style>
      .cls-1 {
        fill: none;
        stroke: #ffffff;
        stroke-miterlimit: 10;
        stroke-width: 3px;
      }

      .cls-2 {
        fill: #ffffff;
      }
    </style>
  </defs>
  <g id="_图层_1-2" data-name="图层 1">
    <g>
      <circle class="cls-1" cx="38.91" cy="38.91" r="37.41"/>
      <path class="cls-2" d="M45.03,44.99c2.63-2.63,3.95-5.8,3.95-9.51s-1.32-6.88-3.95-9.51c-2.63-2.63-5.8-3.95-9.51-3.95s-6.88,1.32-9.51,3.95c-2.63,2.63-3.95,5.8-3.95,9.51s1.32,6.88,3.95,9.51c2.63,2.63,5.8,3.95,9.51,3.95s6.88-1.32,9.51-3.95Zm18.22,12.79c.74,.74,1.11,1.64,1.11,2.7s-.38,1.94-1.14,2.7-1.66,1.14-2.7,1.14-1.98-.38-2.7-1.14l-10.31-10.28c-3.59,2.48-7.58,3.73-11.99,3.73-2.86,0-5.6-.56-8.22-1.67-2.61-1.11-4.87-2.61-6.76-4.51-1.89-1.89-3.4-4.15-4.51-6.76-1.11-2.61-1.67-5.35-1.67-8.22s.56-5.6,1.67-8.22c1.11-2.61,2.61-4.87,4.51-6.76,1.89-1.89,4.15-3.4,6.76-4.51,2.61-1.11,5.35-1.67,8.22-1.67s5.6,.56,8.22,1.67c2.61,1.11,4.87,2.61,6.76,4.51,1.89,1.89,3.4,4.15,4.51,6.76,1.11,2.61,1.67,5.35,1.67,8.22,0,4.41-1.24,8.4-3.73,11.99l10.31,10.31Z"/>
    </g>
  </g>
</svg>