<?xml version="1.0" encoding="UTF-8"?>
<svg id="_图层_2" data-name="图层 2" xmlns="http://www.w3.org/2000/svg" viewBox="0 0 338.67 113.17" fill="#c00d1e">
  <g id="_图层_1-2" data-name="图层 1">
    <g>
      <path d="M26.71,38.48c.08,.53,1.66,3.66,5.4,5.55,3.74,1.89,6.87,2.08,8.23,1.43s5.17-3.21,7.89-4.72c2.72-1.51,4.76-2.11,4.76-3.78s-1.36-6.95-4.04-7.17c-2.68-.23-5.17,1.32-7.02,2.61-1.85,1.28-6.91,3.78-10.04,4.49-3.13,.72-4.42,.38-4.68,.6-.26,.23-.57,.45-.49,.98Z"/>
      <path d="M77.65,20.8s3.32,5.21,3.66,8.87-.3,9.55-.19,9.74,.94,.68,2.53,0c1.59-.68,8.46-3.25,7.59-10.08-.87-6.83-6.65-8.23-8.76-8.53-2.11-.3-4.83,0-4.83,0Z"/>
      <path d="M14.28,93.65c1.25,.26,8.04-3.29,8.91-3.74,.87-.45,4.42-1.77,2.76-5.25-1.66-3.47-3.63-6.99-4.42-7.06-.79-.08-.6,2.27-2.04,4.49-1.43,2.23-3.32,3.85-4.15,4.3-.83,.45-2.68,1.17-2.57,2.27,.11,1.1,.26,4.72,1.51,4.98Z"/>
      <path d="M83.31,68.23c-.08-.79-.68-.87-1.93-2.15-1.25-1.28-1.7-2.08-2.34-2.76-.64-.68-.79,.53-.79,.68s0,.11,.11,3.66c.11,3.55-.57,11.18-.94,12.61-.38,1.43-1.7,2.91-2.68,2.19s-3.55-5.29-5.7-10.72c-2.15-5.44-3.78-16.77-4-19.82-.23-3.06,1.85-2.95,2.87-3.44s4.8-2.04,5.74-3.17,1.32-2,.45-4.23c-.87-2.23-3.17-1.17-4-.64-.83,.53-3.7,1.06-4.68,.19-.98-.87-.91-1.28-.83-10.04,.08-8.76,1.81-17.29,2.11-21.07,.3-3.78,.53-4.49-.98-5.82-1.51-1.32-4.64-2.53-6.8-3.25-2.15-.72-3.66-.45-5.21-.08s-1.47,1.62-1.32,2.08,1.32,3.93,2.34,10.23c1.02,6.31,1.59,23.87,1.55,26.7-.04,2.83-.45,3.25-1.13,4.34s-20.39,9.67-30.4,14.09c-10.01,4.42-12.8,5.17-16.92,6-4.12,.83-4.46,.53-5.48,.72-1.02,.19-.87,2.38-.87,2.38,0,0,.53,.6,1.81,1.62,1.28,1.02,4.95,2.04,6.34,3.02,1.4,.98,3.32,2.34,3.96,2.38,.64,.04,1.81-1.89,5.32-4.23,3.51-2.34,8.69-4.72,10.88-5.1,2.19-.38,2.53,.15,2.68,.79,.15,.64-.34,1.17-1.21,6.04-.87,4.87,.87,9.59,1.4,10.5s2.3,.53,2.57,.49,1.32-.64,3.25-2.42c1.93-1.77,3.74-6.04,4.49-7.06,.76-1.02,3.21-1.62,3.93-1.89,.72-.26,1.7-.3,1.96,.34,.26,.64,.6,5.21-.23,8.19-.83,2.98-6.83,6.91-20.28,15.52-13.44,8.61-24.32,8.84-25.49,8.95-1.17,.11-1.66-.57-1.85-.6s-.57,.6-.87,1.13c-.3,.53-.42,2.53,1.93,5.06,2.34,2.53,5.44,3.55,7.36,3.51,1.93-.04,15.33-5.44,23.53-10.27,8.19-4.83,23.79-19.9,24.77-20.73,.98-.83,2.19-1.36,2.49-1.28s3.89,4.49,6.53,8.99c2.64,4.49,7.67,15.67,8.08,16.16,.42,.49,2.23,.34,2.76,.3,.53-.04,1.32-.38,2.23-1.32,.91-.94,2.38-4.12,2.76-4.98,.38-.87,.72-2,.72-2.79s-.45-5.25-.6-12.95c-.15-7.7,.68-15.26,.6-16.05Zm-36.63-1.81c-.64,.69-1.4,1.13-5.02,.38-3.63-.76-5.93-3.59-5.59-4.38,.34-.79,.95-1.68,3.1-2.64,2.27-1.02,4.42-1.66,6.08-1.77,1.64-.11,1.9,.05,2.38,1.4,.6,1.7-.08,6.08-.94,7.02Zm10.91-.08c-.42,.83-2.11-.45-3.02-1.7-.83-1.14-1.77-1.96-2.27-4.72s-.11-4.72,.57-5.66c.68-.94,2.38-1.25,3.06-.76s1.7,2.38,1.96,5.93,.11,6.08-.3,6.91Z"/>
    </g>
    <path d="M199.75,60.87c.38,1.1,1.36,2.42,1.96,3.13,.6,.72,1.7,1.1,2.87,.91,1.17-.19,2.72-.91,4.08-1.93,1.36-1.02,4.34-2.61,5.44-2.87s1.59-.38,1.89-.15c.3,.23,.45,2.08,.19,3.32s-4.19,6.38-8.69,9.63c-4.49,3.25-6,5.36-4.8,7.36,1.21,2,4.42,2.79,6.76,.98,2.34-1.81,9.44-9.59,10.04-10.72,.6-1.13,1.17-2.64,2.61-2.27,1.43,.38,4.76,1.32,5.7,2.34,.94,1.02,1.02,2.34,1.02,3.44s1.96,3.4,5.97,3.32c4-.08,5.97-1.28,6.23-2.27s.57-4.46-1.43-6.8c-2-2.34-4.46-3.93-6.42-3.89-1.96,.04-6.87,.15-8.16-1.13-1.28-1.28-1.7-2.64-.6-4.42,1.1-1.77,2.95-2.72,6.95-4.95,4-2.23,4.98-3.36,5.14-4.34,.15-.98-.34-2.61-2.49-3.63s-4.42-.83-5.29-.19c-.87,.64-1.25,1.85-1.77,1.59s-.98-4.08-.94-5.1c.04-1.02,2.68-4.3,2.95-5.21,.26-.91,.15-1.77-1.17-3.06s-1.93-1.81-2.79-1.85-1.77,.15-2.3-.45-2.19-2.19-2.95-2.23-2.3,.45-2.34,1.28c-.04,.83,.04,2-.26,3.4-.3,1.4-.64,1.85-.34,2.42s1.85,2.38,2.19,4.76c.34,2.38,.45,7.4-.79,9.63-1.25,2.23-2.38,3.44-3.1,3.85s-1.74,.87-4.91,1.43c-3.17,.57-4.53,.49-4.98,.34-.45-.15-2.76-.76-4.04,.64-1.28,1.4-1.77,2.57-1.4,3.66Z"/>
    <g>
      <path d="M338,25.3c-1.13-2.91-2.83-5.93-4.12-6-1.28-.08-1.62-.42-3.59,.23-1.96,.64-5.82,2.68-5.7-.26,.11-2.95,1.4-6.8,.87-8.5-.53-1.7-2.04-3.13-3.44-4.04-1.4-.91-2.38-2.11-3.17-1.28-.79,.83-3.06,4.8-4,7.33-.94,2.53-1.81,5.51-3.59,5.93-1.77,.42-6.34-2.83-7.48-2.57-1.13,.26-3.47,.68-2.98,2.49,.49,1.81,1.74,4.64,.91,5.7-.83,1.06-3.78,2.95-3.96,4.72-.19,1.77,1.13,4.57,3.85,3.51,2.72-1.06,4.38,.68,2.79,2.15-1.59,1.47-2.64,2.98-6.27,3.06-3.63,.08-7.7-1.96-6.61,1.32,1.1,3.29,2.34,5.36,1.13,7.21-1.21,1.85-2.08,2.45-3.02,2.68s-1.59,.79-.6,2.23c.98,1.43,2.04,1.7,3.21,2,1.17,.3,2.79,.76,2.19,2.23-.6,1.47-1.02,2.45-1.62,2.72-.25,.11-3.11-.18-6.16,1.28-4.23,2.04-10.23,4.95-15.78,5.55-9.26,1.01-10.23,1.62-12.23,.83-1.62-.64-1.7-1.06-2.3-1.06s-1.62,.79-1.7,1.47c-.08,.68-1.59,5.14,1.51,7.48,3.1,2.34,7.14,4.08,11.1,3.02,3.96-1.06,34.14-18.2,36.86-18.73,2.72-.53,5.25,1.28,4.76,2.27-.49,.98-1.89,3.21-5.32,4.46-3.44,1.25-6.16,1.43-6.65,1.96-.49,.53-.83,3.1-1.62,5.25-.73,1.98-1.59,2.53-1.59,4.3s.23,3.51,.08,3.78c-.15,.26-3.74,2.3-9.14,4.53s-6.53,2.49-8.31,2.57c-1.77,.08-3.47-.34-3.93,.34s-.6,2.72,.83,4.08c1.43,1.36,2.79,2.19,4.19,1.96,1.4-.23,4.53-2.27,8.38-3.7s5.21-2.34,6.04-2.3c.83,.04,2.68,2.08,2.15,4.42-.53,2.34-1.62,4.34-4.53,5.29s-6.23,.23-6.72,.6-1.59,2.76,1.51,5.32c3.1,2.57,4.95,2.53,6.8,2.95,1.85,.42,3.21,2,4.91,1.85,1.7-.15,5.32-2.68,6.38-6.95,1.06-4.27,1.36-6.31,1.4-8.69,.04-2.38-.08-7.74,3.1-8.16,3.17-.42,4.23-.34,5.25,0s4.42-.11,5.02-1.93c.6-1.81-.08-4.49-1.43-4.64-1.36-.15-4.49,1.81-6.72,2.04-2.23,.23-5.36,.45-5.97-2.19-.6-2.64-.68-5.36-.3-6.19,.38-.83,3.66-1.47,7.25-3.4,3.59-1.93,11.1-6.68,12.65-10.84,1.55-4.15,.26-5.78-.76-6.12-1.02-.34-6.23-.79-6.16-3.17s1.55-3.96,5.51-5.93c3.96-1.96,6.31-3.93,7.14-4.91s1.55-2.04,3.44-2.11c1.89-.08,5.21,.83,6.08-1.89,.87-2.72,1.32-4.64,.19-7.55Zm-23.71,12.95c-1.13,.68-2.87,1.7-4.3,1.02-1.43-.68-1.81-1.59-1.43-2.34,.4-.8,2.53-2.68,5.1-2.3,1.95,.29,1.77,2.95,.64,3.63Zm11.18-6.87c-.64,.45-1.55,.91-2.72,.49s-1.47-1.17-1.55-1.4-.15-.79,.94-1.06c1.1-.26,2.57-.15,3.1,.15,.53,.3,.87,1.36,.23,1.81Z"/>
      <path d="M265.38,48.94c.01-.23,.6-.72,1.47-.68,.87,.04,4.12-1.85,4.08-5.89-.04-4.04-.83-8.72-.53-9.52,.3-.79,.91-1.7,3.13-1.25s3.74,.53,4.42-.79,.42-1.96,1.36-2.3c.94-.34,2.45-.53,4.57,2.87,2.11,3.4,2.19,7.06,2.11,8.12-.08,1.06-.26,2.45-2.76,4.04-2.49,1.59-6,2.49-6.72,3.81-.72,1.32-.38,2.76-.83,3.44-.45,.68-3.4,4.38-5.36,4.76-1.96,.38-3.7-1.4-4.27-3.25-.57-1.85-.72-2.57-.68-3.36Z"/>
    </g>
    <g>
      <path d="M164.76,86.93c.23,1.28,2.61,4.68,2.42,5.89-.19,1.21-1.51,2.95-2.72,3.93-1.21,.98-1.74,1.89-1.89,2.34-.15,.45,.68,.72,2.08,1.02,1.4,.3,6.08,2.72,7.51,2.42,1.43-.3,5.14-3.59,5.17-5.44,.04-1.85-.49-1.55-2.08-3.96-1.59-2.42-2.68-6.23-4.68-7.85-2-1.62-3.1-2.38-4.15-2.38s-1.25,.23-1.36,.49-.53,2.27-.3,3.55Z"/>
      <path d="M110.39,65.14c-1.28,3.55-.87,12.16-2.23,17.33-1.36,5.17-3.29,11.48-4.38,13.22-1.1,1.74-2.19,3.36-1.66,5.32,.53,1.96,3.93,7.82,7.48,8.16,3.55,.34,4.64-3.02,5.48-7.48,.83-4.46,2.15-15.9,4.61-24.85,2.45-8.95,3.32-13.9,5.44-16.39,2.11-2.49,3.93-4.42,3.85-6.04-.08-1.62-.83-2.08-.98-2.08s-.94,1.17-2.23,1.1c-1.28-.08-1.81-1.17-2.64-2.91-.83-1.74-1.59-3.44-3.1-5.14-1.51-1.7-2.53-2.19-3.29-2.15-.62,.03-1.27,.33-1.74,.91-.73,.9-1.12,5.82-1.51,10.31-.38,4.38-2.54,9.15-3.1,10.69Z"/>
      <path d="M114.54,38.93c-.34-.45-.34-8.81,.11-11.78,.53-3.44,1.89-5.29,1.7-8.99-.19-3.7-.42-6.42-.11-7.29s1.36-2.72,2.49-2.53c1.13,.19,2.93,4.06,4.38,7.51,1.66,3.96,2.3,8.16,1.21,10.84-1.1,2.68-3.74,4.8-5.14,7.25-1.4,2.45-1.4,3.63-2.49,4.34s-1.81,1.1-2.15,.64Z"/>
      <path d="M176.89,66.38c-2.54-.93-5.55-1.13-7.4-1.06-1.85,.08-1.47,2.57-1.62,4-.15,1.43-1.47,3.1-4.38,4.15-2.91,1.06-2.07-2.2-1.28-3.32,.98-1.4,2.68-3.29,5.78-7.59,3.1-4.3,2.72-6.65,1.81-8.27-.91-1.62-1.92-4.96-1.36-5.89,.57-.94,1.13-.72,4.15-2.91,3.02-2.19,2.95-3.51,1.74-6.42-1.21-2.91-7.33-3.25-8.46-4.42-1.13-1.17-.68-3.96,.45-6.68,1.13-2.72,8.87-8.01,11.4-11.25,2.53-3.25,2.91-5.82,2.49-7.59s-1.74-3.21-3.74-4.3c-2-1.1-4.3,.91-4.46,1.62-.21,.98,.08,1.55-.38,4.87-.45,3.32-1.59,4.87-4.53,6.12-2.95,1.25-5.14-4.15-5.97-4.95s-1.13,1.1-1.21,2.61c-.08,1.51,.8,7.88-.34,8.31-1.1,.42-3.59-4.15-5.06-5.1-.5-.32-1.32,.19-2.15,1.17s-.76,2.64-.87,5.29c-.11,2.64-.26,3.4-3.02,6.38-2.76,2.98-14.27,6.38-14.73,6.61-.26,.13-.49,.34-.45,.64,.04,.3,.26,1.13,1.7,2.61,1.43,1.47,3.85,2.49,5.59,2.76,1.74,.26,2.98,.34,3.81,2.15,.83,1.81,.42,6.8,.3,9.18-.11,2.38-2.04,4.57-4.91,6.83-2.87,2.27-3.85,5.06-3.78,7.1,.08,2.04,5.02,4.04,7.36,3.47,2.34-.57,4.72-2.72,5.32-3.36,.6-.64,1.55-.87,2-.6s1.62,1.7,1.93,4c.3,2.3-3.32,4.98-4.83,5.78-1.51,.79-3.21,.45-4.15,.34-.94-.11-1.17,.38-1.32,.79-.15,.42,.49,1.59,1.43,2.34,.94,.76,4.57,.04,5.06,.42,.49,.38,1.47,1.51,1.43,4.08-.04,2.57-4.72,6.49-6.34,8.72-1.62,2.23,1.43,2.19,3.1,1.43,1.66-.76,5.59-3.47,8.31-6.61,2.72-3.13,4.34-9.63,4.34-9.63,0,0,2.76,.34,5.74-.11,2.98-.45,5.66-2.04,8.8-4.53,3.26-2.59,5.55-5.25,5.82-6.16,.26-.91-.64-2.11-3.13-3.02Zm-29.3-26.43c.64-.91,1.77-1.47,3.7-1.62,1.93-.15,3.29,.08,3.93,1.62,.64,1.55-.08,2.45-3.02,2.79-2.95,.34-5.25-1.89-4.61-2.79Zm2.72,23.83c-2.79,.11-2.91-.79-3.1-1.28-.19-.49,.38-2.08,1.93-2.68s2.87-.3,3.51,0,2.34,1.7,2.34,1.7c0,0-1.89,2.15-4.68,2.27Zm6.53-8.8c-.94,.72-3.13,1.32-4.3,.6-1.17-.72-.94-1.66-.94-1.66,.23-1.59,2.98-3.13,4.61-2.15s1.59,2.49,.64,3.21Z"/>
    </g>
  </g>
</svg>